<svg width="70" height="70" fill="none" xmlns="http://www.w3.org/2000/svg"><path d="M37.322 46.08h18.66c.7 0 1.167-.466 1.167-1.166V34.417c0-.7-.467-1.166-1.167-1.166h-18.66c-.7 0-1.167.466-1.167 1.166v10.497c0 .7.467 1.166 1.166 1.166zm1.166-10.497h16.328v8.164H38.488v-8.164zM5.832 30.918h9.33c.7 0 1.166-.466 1.166-1.166s-.466-1.167-1.166-1.167h-9.33c-.7 0-1.166.467-1.166 1.167s.466 1.166 1.166 1.166zm13.995 0h9.33c.7 0 1.167-.466 1.167-1.166s-.467-1.167-1.167-1.167h-9.33c-.7 0-1.166.467-1.166 1.167s.466 1.166 1.166 1.166zM5.832 35.583h15.162c.7 0 1.166-.466 1.166-1.166s-.467-1.166-1.166-1.166H5.832c-.7 0-1.166.466-1.166 1.166s.466 1.166 1.166 1.166zm23.325-2.333h-3.499c-.7 0-1.166.467-1.166 1.167s.467 1.166 1.166 1.166h3.5c.7 0 1.166-.466 1.166-1.166s-.467-1.166-1.167-1.166z" fill="#F4D35E"/><path d="M68.928 18.788c-.816-1.05-1.866-1.632-3.149-1.749l-2.799-.34v-5.608a4.678 4.678 0 00-4.665-4.665H4.665A4.679 4.679 0 000 11.09v37.322c0 2.106 1.416 3.897 3.342 4.471a4.539 4.539 0 004.122 4.626l53.884 6.065h.466c2.333 0 4.432-1.75 4.665-3.966l3.5-37.438c.116-1.166-.234-2.45-1.05-3.383zM2.334 14.59h58.315v6.998H2.333V14.59zm2.332-5.832h53.65a2.34 2.34 0 012.333 2.333v1.166H2.333v-1.166a2.34 2.34 0 012.332-2.333zM2.333 48.412V23.92h58.315v24.492a2.34 2.34 0 01-2.333 2.333H4.665a2.34 2.34 0 01-2.332-2.332zm65.313-26.708l-3.5 37.439c-.116 1.282-1.282 2.215-2.565 2.099L7.814 55.177c-1.166-.116-1.983-1.05-2.1-2.1h52.601a4.678 4.678 0 004.665-4.664V18.905l2.683.233c.583 0 1.166.35 1.516.817.35.466.583 1.166.466 1.75z" fill="#fff"/></svg>