<svg width="70" height="70" fill="none" xmlns="http://www.w3.org/2000/svg"><g clip-path="url(#clip0)"><path d="M69.424 19.995L35.59.16a1.166 1.166 0 00-1.153-.015L.603 18.813A1.164 1.164 0 000 19.833v49C0 69.48.523 70 1.167 70H7c.644 0 1.167-.521 1.167-1.166V28h53.666v40.834c0 .645.522 1.166 1.167 1.166h5.833c.645 0 1.167-.52 1.167-1.166V21c0-.414-.22-.797-.576-1.005zm-1.757 47.672h-3.5V26.834c0-.644-.522-1.167-1.167-1.167H7c-.644 0-1.167.523-1.167 1.167v40.833h-3.5V20.522L34.983 2.51l32.684 19.16v45.998z" fill="#fff"/><path d="M58.334 53.666h-14c-.646 0-1.167.522-1.167 1.167v14c0 .645.521 1.166 1.167 1.166h14c.645 0 1.166-.52 1.166-1.166v-14c0-.645-.521-1.167-1.166-1.167zm-1.167 14H45.5V56h11.667v11.666z" fill="#F4D35E"/><path d="M52.5 54.833v3.5h-2.334v-3.5h-2.333V59.5c0 .645.522 1.166 1.167 1.166h4.666c.645 0 1.167-.521 1.167-1.166v-4.667H52.5zm-8.166-1.167h-14c-.644 0-1.167.522-1.167 1.167v14c0 .645.523 1.166 1.167 1.166h14c.645 0 1.166-.52 1.166-1.166v-14c0-.645-.521-1.167-1.166-1.167zm-1.167 14H31.5V56h11.667v11.666z" fill="#F4D35E"/><path d="M38.5 54.833v3.5h-2.333v-3.5h-2.334V59.5c0 .645.523 1.166 1.167 1.166h4.667c.645 0 1.166-.521 1.166-1.166v-4.667H38.5zm19.834-15.167h-14c-.646 0-1.167.522-1.167 1.167v14c0 .645.521 1.166 1.167 1.166h14c.645 0 1.166-.52 1.166-1.166v-14c0-.645-.521-1.167-1.166-1.167zm-1.167 14H45.5V42h11.667v11.666z" fill="#F4D35E"/><path d="M52.5 40.833v3.5h-2.334v-3.5h-2.333V45.5c0 .645.522 1.166 1.167 1.166h4.666c.645 0 1.167-.521 1.167-1.166v-4.667H52.5z" fill="#F4D35E"/><path d="M63 35H7v2.333h56V35zm0-4.667H7v2.333h56v-2.333zm-22.167-14H29.167c-.644 0-1.167.523-1.167 1.167v4.666c0 .644.523 1.167 1.167 1.167h11.666c.645 0 1.167-.523 1.167-1.167V17.5c0-.644-.522-1.167-1.167-1.167zM39.667 21h-9.334v-2.334h9.334V21z" fill="#fff"/></g><defs><clipPath id="clip0"><path fill="#fff" d="M0 0h70v70H0z"/></clipPath></defs></svg>