<svg width="66" height="70" fill="none" xmlns="http://www.w3.org/2000/svg"><path d="M65.229 15.445L33.446.102a1.026 1.026 0 00-.892 0L.771 15.445c-.354.171-.58.53-.58.924V53.63c0 .394.226.753.58.924l31.783 15.343a1.026 1.026 0 00.892 0l31.783-15.343c.354-.171.58-.53.58-.924V16.37c0-.394-.226-.752-.58-.924zM33 2.164L62.424 16.37l-8.53 4.117a1.025 1.025 0 00-.173-.109L24.497 6.269 33 2.164zM22.181 7.428l29.381 14.184-6.017 2.906-29.37-14.179 6.006-2.91zm30.069 16.13v10.738l-5.621 2.714V26.271l5.62-2.713zm11.507 29.43L34.025 67.34V32.356l7.092-3.424a1.025 1.025 0 10-.891-1.847L33 30.573l-2.843-1.372a1.025 1.025 0 10-.892 1.847l2.71 1.308V67.34L2.243 52.988V18.002l22.64 10.93a1.025 1.025 0 10.892-1.847L3.575 16.37l10.187-4.918 30.802 14.87.014.018v12.305a1.026 1.026 0 001.471.923l7.672-3.703c.355-.171.58-.53.58-.924V22.568l9.456-4.566v34.986z" fill="#fff"/></svg>