<svg width="70" height="71" fill="none" xmlns="http://www.w3.org/2000/svg"><path d="M65.1 32.084l-1.813-7.355c.496-.107.867-.553.867-1.087v-1.186c0-2.574-2.065-4.669-4.603-4.669h-8.257v-2.446c0-1.267-1.016-2.297-2.265-2.297H6.941c-1.249 0-2.265 1.03-2.265 2.297V35.5c0 .614.491 1.112 1.096 1.112.606 0 1.096-.498 1.096-1.112V15.34c0-.04.033-.074.073-.074H49.03c.04 0 .073.033.073.074V35.5c0 .613.49 1.111 1.096 1.111.605 0 1.096-.498 1.096-1.112v-1.26H64.23c1.59.001 2.941 1.06 3.405 2.52h-3.408c-.605 0-1.096.498-1.096 1.112v2.371c0 1.921 1.54 3.483 3.434 3.483h1.243v4.892h-2.866c-.942-2.757-3.526-4.743-6.56-4.743-3.035 0-5.619 1.986-6.56 4.743h-.528v-8.375c0-.614-.49-1.112-1.096-1.112-.605 0-1.096.498-1.096 1.112v8.375h-22.74c-.942-2.758-3.526-4.744-6.56-4.744-3.035 0-5.62 1.986-6.56 4.744h-6.3a.073.073 0 01-.074-.074v-2.446h4.75c.605 0 1.096-.498 1.096-1.112 0-.614-.49-1.112-1.096-1.112H1.096c-.605 0-1.096.498-1.096 1.112 0 .614.49 1.112 1.096 1.112h3.58v2.446c0 1.267 1.017 2.297 2.266 2.297h5.92l-.002.074c0 3.882 3.114 7.04 6.942 7.04 3.827 0 6.941-3.158 6.941-7.04l-.002-.074h24.701l-.002.074c0 3.882 3.114 7.04 6.942 7.04 3.827 0 6.941-3.158 6.941-7.04l-.002-.074h3.583c.605 0 1.096-.498 1.096-1.112V37.871c0-2.927-2.13-5.36-4.9-5.788zM51.294 20.01h8.257c1.33 0 2.411 1.098 2.411 2.446v.074H51.294v-2.52zm0 12.007v-7.263h9.74l1.79 7.263h-11.53zM19.802 55.733c-2.62 0-4.75-2.161-4.75-4.818 0-2.656 2.13-4.817 4.75-4.817 2.619 0 4.75 2.161 4.75 4.817 0 2.657-2.131 4.818-4.75 4.818zm38.58 0c-2.619 0-4.75-2.161-4.75-4.818 0-2.656 2.131-4.817 4.75-4.817s4.75 2.161 4.75 4.817c0 2.657-2.131 4.818-4.75 4.818zm9.426-14.23h-1.242a1.253 1.253 0 01-1.243-1.26v-1.26h2.485v2.52z" fill="#fff"/><path d="M19.802 48.618c-1.25 0-2.265 1.03-2.265 2.297 0 1.267 1.016 2.298 2.265 2.298s2.265-1.03 2.265-2.298c0-1.267-1.016-2.297-2.265-2.297zm38.58 0c-1.25 0-2.265 1.03-2.265 2.297 0 1.267 1.016 2.298 2.265 2.298s2.265-1.03 2.265-2.298c0-1.267-1.016-2.297-2.265-2.297zm-12.86-4.743H29.155c-.606 0-1.096.497-1.096 1.111s.49 1.112 1.096 1.112h16.367c.605 0 1.096-.498 1.096-1.111 0-.615-.49-1.112-1.096-1.112zm-28.059-4.743H3.434c-.605 0-1.096.497-1.096 1.111s.49 1.112 1.096 1.112h14.03c.605 0 1.095-.498 1.095-1.112 0-.614-.49-1.111-1.096-1.111z" fill="#fff"/><path d="M38.114 24.042a1.085 1.085 0 00-1.55 0l-9.747 9.886-5.071-5.143a1.085 1.085 0 00-1.55 0 1.123 1.123 0 000 1.572l5.846 5.929a1.084 1.084 0 001.55 0l10.521-10.672a1.123 1.123 0 000-1.572z" fill="#F4D35E"/></svg>