<svg width="70" height="70" fill="none" xmlns="http://www.w3.org/2000/svg"><g clip-path="url(#clip0)"><path d="M5.645 6.774h33.871v7.903c0 .625.505 1.13 1.13 1.13h7.902v9.032h2.259V14.677a1.13 1.13 0 00-.332-.799l-9.03-9.029a1.128 1.128 0 00-.8-.333H10.161V2.258h42.904v24.839h2.258V1.129c0-.625-.505-1.129-1.13-1.129H9.034c-.625 0-1.13.504-1.13 1.129v3.387H4.516c-.624 0-1.129.505-1.129 1.13V68.87c0 .625.505 1.129 1.13 1.129h38.386v-2.258H5.645V6.774zm36.13 1.597l5.177 5.177h-5.178V8.371z" fill="#fff"/><path d="M65.484 33.871h-1.7a16.89 16.89 0 01-13.01-6.092l-.229-.275c-.427-.516-1.307-.516-1.735 0l-.228.274A16.89 16.89 0 0135.57 33.87h-1.7c-.625 0-1.13.504-1.13 1.129v18.286c0 4.446 2.399 8.578 6.259 10.783l10.117 5.782a1.127 1.127 0 001.12 0l10.117-5.782a12.446 12.446 0 006.259-10.783V35c0-.625-.505-1.129-1.13-1.129zm-1.13 19.415c0 3.637-1.96 7.018-5.12 8.822l-9.557 5.464-9.557-5.463A10.184 10.184 0 0135 53.286V36.129h.57a19.139 19.139 0 0014.107-6.177 19.137 19.137 0 0014.106 6.177h.572v17.157z" fill="#fff"/><path d="M49.677 37.258c-6.847 0-12.42 5.572-12.42 12.42 0 6.847 5.573 12.419 12.42 12.419 6.848 0 12.42-5.572 12.42-12.42 0-6.847-5.572-12.419-12.42-12.419zm0 22.58c-5.603 0-10.161-4.557-10.161-10.16 0-5.604 4.558-10.162 10.161-10.162S59.84 44.074 59.84 49.677c0 5.604-4.559 10.162-10.162 10.162z" fill="#fff"/><path d="M49.139 53.187l-2.05-2.05-1.597 1.597 3.387 3.387a1.126 1.126 0 001.074.297c.386-.098.69-.391.806-.771l3.387-11.29-2.163-.649-2.844 9.48z" fill="#F4D35E"/><path d="M7.903 18.064h29.355v2.259H7.903v-2.259zm0 4.516h29.355v2.259H7.903V22.58zm0 4.517h29.355v2.258H7.903v-2.258zm0 4.516h22.581v2.258H7.904v-2.258zm0 4.517h22.581v2.257H7.904V36.13zm0 4.515h22.581v2.258H7.904v-2.258zm0 13.549h22.581v2.258H7.904v-2.258zm0 4.516h22.581v2.258H7.904V58.71zm0 4.516h22.581v2.258H7.904v-2.258zM9.032 9.032h2.258v2.258H9.032V9.032zm4.516 0h2.258v2.258h-2.258V9.032zm4.516 0h2.259v2.258h-2.259V9.032zm4.516 0h14.678v2.258H22.581V9.032z" fill="#fff"/></g><defs><clipPath id="clip0"><path fill="#fff" d="M0 0h70v70H0z"/></clipPath></defs></svg>