<svg width="70" height="70" fill="none" xmlns="http://www.w3.org/2000/svg"><path d="M59.109 24.824l5.253-4.67.02-.017a17.534 17.534 0 005.44-15.35l-.19-1.353A3.536 3.536 0 0066.656.457l-1.343-.19a17.552 17.552 0 00-15.376 5.461l-4.67 5.254-2.525-1.453a43.758 43.758 0 00-21.833-5.8l-2.172.009a5.865 5.865 0 00-5.047 2.925l-.41.71a1.17 1.17 0 00.428 1.597L36 21.84 18.58 41.577l-1.334 1.715a24.61 24.61 0 00-11.8-3.027l-1.762-.008a3.562 3.562 0 00-3.03 1.755l-.497.852a1.169 1.169 0 00.429 1.599l11.348 6.552a30.513 30.513 0 00-.904 1.887 4.709 4.709 0 004.285 6.54 4.752 4.752 0 001.96-.429 28.541 28.541 0 001.799-.863l6.552 11.349a1.17 1.17 0 001.601.434l.86-.497h.007a3.568 3.568 0 001.746-3.042l-.008-1.74a24.613 24.613 0 00-3.036-11.81l1.69-1.315 19.752-17.44 12.877 22.294a1.17 1.17 0 001.598.428l.71-.408a5.866 5.866 0 002.925-5.05l.007-2.169a43.345 43.345 0 00-5.798-21.834l-1.448-2.526zM18.745 6.078l2.172-.008a41.269 41.269 0 0120.657 5.487l2.134 1.228-6.147 7.263L15.904 7.541a3.527 3.527 0 012.841-1.463zM3.69 42.597l1.755.008c3.609 0 7.163.877 10.358 2.554l-.735.947a27.436 27.436 0 00-1.222 1.687c-.117.168-.222.34-.333.512-.144.224-.295.44-.434.668l-10.296-5.94c.222-.273.555-.433.907-.436zm23.796 22.058l.009 1.73c0 .357-.161.696-.438.922l-5.939-10.296c.227-.138.44-.285.661-.428.174-.117.351-.224.522-.34a26.99 26.99 0 001.638-1.18l.035-.027.96-.746a22.292 22.292 0 012.552 10.365zm-.492-14.928l-2.408 1.872c-.006 0-.014 0-.02.01l-2.04 1.592a27 27 0 01-3.578 2.371 28.197 28.197 0 01-2.748 1.367 2.351 2.351 0 01-3.012-3.11c.399-.92.845-1.818 1.34-2.691a26.914 26.914 0 012.377-3.594l1.58-2.027s0-.013.008-.019l1.89-2.433L51.67 7.3a15.217 15.217 0 0111.144-4.873c.725 0 1.448.052 2.165.156l1.343.19c.513.076.918.477.995.991l.191 1.352a15.196 15.196 0 01-4.711 13.293L26.993 49.727zm37.02 1.62a3.521 3.521 0 01-1.465 2.838L50.042 32.522l7.266-6.14 1.23 2.136a41.009 41.009 0 015.481 20.664l-.007 2.164z" fill="#1E4150"/></svg>