<svg width="50" height="50" fill="none" xmlns="http://www.w3.org/2000/svg"><g clip-path="url(#clip0)" fill="#1E4150"><path d="M42.22 17.732l3.753-3.336.014-.012A12.525 12.525 0 0049.873 3.42l-.136-.967A2.526 2.526 0 0047.612.327l-.96-.135a12.537 12.537 0 00-10.983 3.9l-3.336 3.753-1.803-1.038a31.256 31.256 0 00-15.595-4.142l-1.552.005a4.19 4.19 0 00-3.605 2.09l-.292.507c-.23.4-.093.91.306 1.14l15.922 9.194-12.442 14.097-.953 1.225a17.579 17.579 0 00-8.43-2.162l-1.258-.005c-.89.01-1.712.485-2.163 1.253l-.356.609a.835.835 0 00.306 1.142l8.107 4.68c-.23.444-.448.89-.646 1.348a3.364 3.364 0 003.06 4.672 3.396 3.396 0 001.4-.307c.418-.18.848-.391 1.285-.617l4.68 8.107a.835.835 0 001.144.31l.614-.355h.005a2.548 2.548 0 001.247-2.173l-.006-1.243a17.58 17.58 0 00-2.168-8.436l1.208-.94L34.456 24.35l9.198 15.924c.23.4.741.536 1.14.306l.508-.291a4.19 4.19 0 002.09-3.608l.004-1.549a30.96 30.96 0 00-4.14-15.596l-1.035-1.804zM13.39 4.342l1.55-.006a29.478 29.478 0 0114.755 3.92l1.525.877-4.39 5.188-15.47-8.934a2.52 2.52 0 012.03-1.045zM2.635 30.427l1.254.006c2.577 0 5.116.626 7.398 1.824l-.525.676a19.63 19.63 0 00-.872 1.205c-.084.12-.16.244-.239.367-.103.159-.21.313-.31.476l-7.354-4.243a.846.846 0 01.648-.311zm16.997 15.756l.006 1.235a.852.852 0 01-.312.66l-4.242-7.355c.162-.099.314-.204.472-.306.124-.083.25-.16.373-.242a19.25 19.25 0 001.17-.844l.024-.019.686-.533a15.923 15.923 0 011.823 7.404zm-.351-10.663l-1.72 1.337c-.005 0-.01 0-.014.007l-1.458 1.137a19.282 19.282 0 01-2.556 1.694 20.153 20.153 0 01-1.962.976 1.68 1.68 0 01-2.152-2.221 20.27 20.27 0 01.957-1.922c.497-.9 1.064-1.759 1.698-2.567l1.128-1.448s0-.01.007-.013l1.35-1.739L36.906 5.216a10.87 10.87 0 017.96-3.481c.518 0 1.035.037 1.547.111l.96.136a.844.844 0 01.71.708l.136.966a10.855 10.855 0 01-3.365 9.494L19.281 35.52zm26.442 1.157a2.515 2.515 0 01-1.046 2.027L35.745 23.23l5.19-4.387.878 1.526a29.29 29.29 0 013.915 14.76l-.005 1.547z"/><path d="M40.367 6.263A2.507 2.507 0 0143.8 9.7a.836.836 0 001.438.853 4.179 4.179 0 00-5.721-5.729.836.836 0 10.85 1.44z"/></g><defs><clipPath id="clip0"><path fill="#fff" d="M0 0h50v50H0z"/></clipPath></defs></svg>