<svg width="14" height="13" fill="none" xmlns="http://www.w3.org/2000/svg"><g clip-path="url(#clip0)"><path d="M10.107.253L8.453.25c-1.858 0-3.06 1.207-3.06 3.076v1.419H3.732A.258.258 0 003.47 5v2.055c0 .14.116.255.26.255h1.663v5.185c0 .141.116.255.26.255h2.17c.143 0 .26-.114.26-.255V7.31h1.944c.144 0 .26-.114.26-.255L10.29 5a.253.253 0 00-.076-.18.263.263 0 00-.184-.075H8.084V3.542c0-.578.14-.871.909-.871h1.114c.143 0 .26-.115.26-.255V.507a.258.258 0 00-.26-.254z" fill="#fff"/></g><defs><clipPath id="clip0"><path fill="#fff" transform="translate(.541 .25)" d="M0 0h12.755v12.5H0z"/></clipPath></defs></svg>