<svg width="18" height="17" fill="none" xmlns="http://www.w3.org/2000/svg"><g clip-path="url(#clip0)" fill="#fff"><path d="M6.609 9.573h2.59a3.293 3.293 0 01-3.128 2.152c-1.75-.012-3.196-1.384-3.264-3.097-.073-1.837 1.43-3.353 3.289-3.353.85 0 1.625.317 2.21.837a.362.362 0 00.485-.002l.951-.878a.344.344 0 00.001-.506 5.341 5.341 0 00-3.542-1.424C3.277 3.246.811 5.596.791 8.463c-.02 2.888 2.362 5.236 5.305 5.236 2.83 0 5.141-2.171 5.296-4.907.004-.034.007-1.193.007-1.193h-4.79a.352.352 0 00-.356.349v1.276c0 .193.16.349.356.349zm9.179-1.858V6.468a.308.308 0 00-.311-.305h-1.072a.308.308 0 00-.311.305v1.247h-1.273a.308.308 0 00-.311.305v1.05c0 .169.14.306.311.306h1.273v1.247c0 .168.14.305.312.305h1.07a.308.308 0 00.312-.305V9.376h1.273a.308.308 0 00.311-.306V8.02a.308.308 0 00-.311-.305h-1.273z"/></g><defs><clipPath id="clip0"><path fill="#fff" transform="translate(.791 .375)" d="M0 0h16.582v16.25H0z"/></clipPath></defs></svg>