<svg width="14" height="13" fill="none" xmlns="http://www.w3.org/2000/svg"><g clip-path="url(#clip0)" fill="#fff"><path d="M3.23 4.156H.377v8.594H3.23V4.156zm7.77.101c-.031-.01-.06-.02-.092-.028a1.864 1.864 0 00-.115-.022 2.605 2.605 0 00-.512-.05c-1.663 0-2.718 1.184-3.065 1.642V4.156H4.363v8.594h2.853V8.062s2.155-2.942 3.065-.78v5.468h2.851v-5.8c0-1.298-.908-2.38-2.133-2.693zM1.773 2.984c.77 0 1.395-.612 1.395-1.367S2.543.25 1.773.25C1.002.25.377.862.377 1.617s.625 1.367 1.396 1.367z"/></g><defs><clipPath id="clip0"><path fill="#fff" transform="translate(.377 .25)" d="M0 0h12.755v12.5H0z"/></clipPath></defs></svg>