<svg width="36" height="50" fill="none" xmlns="http://www.w3.org/2000/svg"><path d="M35.217 40.512c-.432 0-.782.328-.782.732v6.887c0 .222-.194.404-.432.404h-4.206V34.111c0-.404-.35-.732-.782-.732-.432 0-.782.328-.782.732v14.424h-8.47l2.457-2.53a1.258 1.258 0 00.335-1.075l-2.34-12.936.63-.888c.35.231.617.454 1.12.454.513 0 .991-.268 1.227-.71l2.467-4.628 5.62 2.037c.203.082 3.156 1.326 3.156 4.613v4.954c0 .405.35.733.782.733.432 0 .783-.328.783-.733v-4.954c0-4.33-3.961-5.904-4.13-5.97a.378.378 0 00-.015-.005l-9.353-3.391v-2.054c1.485-1.081 2.515-2.685 2.774-4.514a3.513 3.513 0 001.99-.76c.732-.59 1.153-1.449 1.153-2.356 0-.753-.29-1.471-.807-2.031V9.077c0-5.005-4.35-9.077-9.696-9.077-5.347 0-9.697 4.072-9.697 9.077v2.785c-.522.554-.806 1.236-.806 1.96 0 .907.42 1.766 1.153 2.356.561.452 1.248.71 1.989.76.26 1.863 1.32 3.527 2.933 4.623v1.945l-9.344 3.391-.015.006C3.961 26.968 0 28.541 0 32.873V48.13C0 49.161.896 50 1.997 50H9.45c.432 0 .782-.328.782-.733 0-.404-.35-.732-.782-.732H7.767V34.11c0-.404-.35-.732-.782-.732-.432 0-.782.328-.782.732v14.424H1.997c-.238 0-.432-.181-.432-.404V32.872c0-3.298 2.972-4.54 3.155-4.613l5.615-2.038 2.468 4.63c.236.442.715.71 1.226.71.5 0 .767-.22 1.12-.455l.63.888L13.44 44.93a1.258 1.258 0 00.335 1.076l2.456 2.53h-3.129c-.432 0-.782.327-.782.732 0 .404.35.732.782.732h20.901C35.104 50 36 49.161 36 48.13v-6.886c0-.404-.35-.732-.783-.732zM24.194 25.69l-2.3 4.316-2.767-1.84 2.841-3.282 2.226.806zm-4.625 4.567l-.596.84h-1.951l-.597-.84 1.572-1.045 1.572 1.045zm-4.517-6.515v-1.37c.95.358 1.967.525 2.959.525a7.776 7.776 0 002.926-.571v1.422l-2.94 3.397-2.945-3.403zm11.802-9.92a1.6 1.6 0 01-.609 1.246 1.88 1.88 0 01-.903.389v-3.27c.899.137 1.512.836 1.512 1.635zM10.49 15.457c-.91-.138-1.513-.842-1.513-1.635 0-.783.694-1.42 1.513-1.597v3.232zm.042-4.725c-.25.027-.535.09-.748.158V9.077c0-4.197 3.648-7.612 8.132-7.612 4.483 0 8.131 3.415 8.131 7.612v1.762a3.684 3.684 0 00-.705-.127c0-.707.006-.57-2.463-3.056a1.462 1.462 0 00-1.778-.203c-2.725 1.667-6.05 2.504-9.118 2.298-.673-.047-1.286.368-1.451.981zm1.523 5.302v-4.81c3.377.184 6.918-.755 9.778-2.47 1.133 1.139 1.746 1.736 1.944 1.963v5.316c0 2.974-2.59 5.398-5.766 5.398-3.567 0-5.956-2.59-5.956-5.397zM14.1 30.006l-2.3-4.316 2.221-.805 2.842 3.284-2.763 1.837zm.897 15.082l2.265-12.526h1.468l2.264 12.526-2.998 3.088-2.998-3.088z" fill="#1E4150"/></svg>