<svg width="15" height="15" fill="none" xmlns="http://www.w3.org/2000/svg"><path d="M14.664 11.881L12.347 9.56c-.461-.46-1.225-.446-1.703.032l-1.167 1.17a30.47 30.47 0 01-.23-.128c-.737-.41-1.746-.97-2.807-2.035-1.065-1.067-1.625-2.08-2.035-2.819-.043-.078-.084-.154-.125-.225l.783-.784.385-.387c.478-.48.492-1.245.031-1.707L3.163.354c-.46-.461-1.225-.447-1.703.032l-.653.658.018.018c-.22.28-.402.603-.538.951a3.95 3.95 0 00-.24.965C-.259 5.519.9 7.842 4.045 10.994c4.347 4.357 7.85 4.028 8.002 4.012.329-.04.644-.119.965-.243.344-.135.666-.318.945-.537l.014.012.662-.649c.477-.48.49-1.245.03-1.708z" fill="#fff"/></svg>