<svg width="70" height="70" fill="none" xmlns="http://www.w3.org/2000/svg"><g clip-path="url(#clip0)" fill="#1E4150"><path d="M36.731 33.27a1.367 1.367 0 10-1.935 1.933 1.367 1.367 0 001.935-1.932zm17.401-17.401a6.833 6.833 0 00-9.668 0c-2.665 2.664-2.665 7.001 0 9.668 2.666 2.664 7.002 2.665 9.668 0a6.833 6.833 0 000-9.668zm-1.934 7.734a4.107 4.107 0 01-5.8 0 4.107 4.107 0 010-5.8 4.1 4.1 0 015.8 0 4.1 4.1 0 010 5.8z"/><path d="M69.6.4a1.362 1.362 0 00-1.016-.399c-.31.011-7.67.307-16.42 3.4-7.01 2.475-12.854 6.019-17.368 10.533a52.008 52.008 0 00-2.938 3.199c-4.464-2.627-8.04-1.804-10.302-.593-5.206 2.786-8.429 10.351-8.429 15.763a1.368 1.368 0 002.335.966c2.745-2.745 6.132-2.574 7.239-2.428l.478.479a48.082 48.082 0 00-2.258 6.64 3.87 3.87 0 00.166 2.375c-1.317.606-2.587 1.497-3.692 2.603-3.52 3.52-4.234 12.096-4.263 12.46a1.367 1.367 0 001.47 1.47c.364-.029 8.941-.743 12.46-4.262a12.957 12.957 0 002.603-3.692 3.86 3.86 0 002.376.165 48.1 48.1 0 006.64-2.258l.478.479c.145 1.106.317 4.493-2.428 7.238a1.367 1.367 0 00.966 2.334c5.412 0 12.977-3.222 15.763-8.429 1.21-2.26 2.034-5.837-.593-10.301a52.016 52.016 0 003.199-2.938c4.514-4.515 8.058-10.358 10.533-17.369 3.093-8.75 3.389-16.11 3.4-16.419a1.368 1.368 0 00-.4-1.016zM16.183 29.362c.85-4.11 3.316-8.62 6.663-10.412 2.237-1.197 4.681-1.08 7.28.344a55.28 55.28 0 00-5.743 9.363c-.02-.012-.267-.322-.724-.425-.188-.043-3.806-.82-7.476 1.13zm8.945 21.31c-1.88 1.88-6.29 2.871-9.077 3.276.405-2.787 1.396-7.197 3.276-9.077 1.053-1.052 2.274-1.85 3.5-2.3l4.601 4.6c-.45 1.228-1.247 2.448-2.3 3.501zm6.233-4.242c-.396.101-.854-.047-1.195-.388l-2.678-2.677-3.53-3.531c-.341-.342-.49-.8-.39-1.195a44.399 44.399 0 011.708-5.222l11.306 11.306a44.36 44.36 0 01-5.221 1.707zm19.688.723c-1.791 3.347-6.301 5.814-10.411 6.663 1.31-2.466 1.599-5.605 1.12-7.509-.111-.442-.4-.664-.416-.69a55.3 55.3 0 009.364-5.745c1.422 2.6 1.54 5.045.343 7.281zm3.082-13.883a49.633 49.633 0 01-3.943 3.538 52.527 52.527 0 01-10.899 6.756L26.436 30.71a52.517 52.517 0 016.756-10.899 49.622 49.622 0 013.538-3.943c4.05-4.05 9.277-7.274 15.54-9.595L63.728 17.73c-2.32 6.264-5.544 11.49-9.595 15.541zM64.71 14.846L55.154 5.29c5.207-1.617 9.736-2.223 11.997-2.44-.218 2.26-.824 6.79-2.44 11.996z"/><path d="M32.863 56.471a1.367 1.367 0 00-1.933 0l-3.867 3.869a1.367 1.367 0 001.934 1.933l3.867-3.868a1.37 1.37 0 000-1.934zM13.529 37.137a1.367 1.367 0 00-1.934 0l-3.867 3.866a1.367 1.367 0 001.933 1.934l3.868-3.866c.534-.534.534-1.4 0-1.934zm9.667 21.269a1.367 1.367 0 00-1.934 0l-9.26 9.26a1.367 1.367 0 101.932 1.934l9.262-9.26c.534-.534.534-1.4 0-1.934zm-10.938 0a1.367 1.367 0 00-1.933 0l-9.261 9.26A1.367 1.367 0 102.997 69.6l9.261-9.26c.534-.534.534-1.4 0-1.934zm-.664-11.602a1.367 1.367 0 00-1.934 0L.4 56.065A1.367 1.367 0 002.334 58l9.26-9.262c.534-.534.534-1.4 0-1.933zM42.53 27.47a1.367 1.367 0 00-1.933 0l-1.933 1.933a1.367 1.367 0 001.934 1.933l1.933-1.933c.534-.534.534-1.4 0-1.934z"/></g><defs><clipPath id="clip0"><path fill="#fff" d="M0 0h70v70H0z"/></clipPath></defs></svg>