<svg width="70" height="70" fill="none" xmlns="http://www.w3.org/2000/svg"><path d="M69.665 62.271a1.367 1.367 0 00-1.93-.134c-1.457 1.267-2.806 2.582-4.719 3.11-2.126.588-4.147.124-6.072-.838l7.12-23.957a1.367 1.367 0 00-.601-1.558l-6.588-3.992V23.247c0-.755-.612-1.368-1.367-1.368h-2.735v-4.101c0-.755-.612-1.367-1.367-1.367H47.1v-4.102c0-.755-.613-1.367-1.368-1.367h-6.63v-9.57c0-.755-.612-1.368-1.368-1.368h-5.468c-.755 0-1.367.613-1.367 1.368v9.57h-6.631c-.756 0-1.368.612-1.368 1.367v4.102h-4.306c-.755 0-1.367.612-1.367 1.367v4.101h-2.735c-.755 0-1.367.613-1.367 1.367v11.656l-6.587 3.992c-.532.322-.78.962-.602 1.558L13.04 64.36c-.12-.408-2.309-.677-2.695-.727-3.981-.515-7.008 1.48-9.876 3.972a1.367 1.367 0 00-.135 1.93 1.384 1.384 0 001.93.134c2.953-2.568 6.284-4.526 10.193-2.571 3.536 1.767 7.196 2.526 10.88.588 2.969-1.564 5.835-2.914 9.15-1.335l3.408 1.623a10.346 10.346 0 009.132-.088c1.78-.89 3.589-2.074 5.622-2.214 1.993-.137 3.918.605 5.67 1.481 2.313 1.157 5.02 1.388 7.504.68 2.288-.652 3.954-2.11 5.706-3.633.57-.495.63-1.359.135-1.929zM54.14 24.614v8.631l-14.246-8.631H54.14zM33.633 2.739h2.734v8.203h-2.734V2.739zm-7.998 10.937h18.73v2.735h-18.73v-2.735zm-9.776 10.938h14.246L15.86 33.245v-8.631zm17.774 39.254c0-.243-1.95-.692-2.204-.747-2.38-.515-4.934-.188-7.091.948-1.565.823-3.075 1.784-4.865 2.015l-.01.001a7.827 7.827 0 01-3.129-.245L8.857 40.685l24.776-15.011v38.194zM19.96 21.879v-2.734h30.078v2.734H19.961zm34.456 41.434c.015-.423-3.833-.42-4.091-.392-2.373.251-4.426 1.472-6.52 2.52-2.475 1.236-5.02.88-7.439-.271V25.674l24.776 15.011-6.726 22.628z" fill="#1E4150"/></svg>