<svg width="16" height="15" fill="none" xmlns="http://www.w3.org/2000/svg"><path d="M15.968 6.333a.336.336 0 00-.305-.196h-.996C14.033 2.65 11.014 0 7.396 0 3.318 0 0 3.365 0 7.5 0 11.636 3.318 15 7.396 15c2.632 0 5.086-1.436 6.405-3.748a.687.687 0 00-.245-.932.666.666 0 00-.919.249c-1.08 1.892-3.088 3.068-5.241 3.068-3.337 0-6.051-2.753-6.051-6.136 0-3.384 2.715-6.137 6.051-6.137 2.874 0 5.282 2.044 5.895 4.773h-.989a.337.337 0 00-.305.196.344.344 0 00.047.363l1.68 2.046a.334.334 0 00.517 0l1.681-2.046a.345.345 0 00.046-.363z" fill="#fff"/><path d="M7.406 2c-.444 0-.803.293-.803.654v3.971c-.364.208-.603.55-.603.938 0 .632.631 1.146 1.406 1.146.213 0 .413-.042.594-.111l2.795 1.314c.127.06.264.088.4.088.278 0 .548-.117.697-.327.222-.313.09-.713-.294-.894L8.8 7.463c-.038-.346-.258-.648-.59-.837V2.654c0-.36-.36-.654-.804-.654zm0 6.054c-.332 0-.602-.22-.602-.49 0-.271.27-.492.602-.492.332 0 .603.22.603.491 0 .27-.271.49-.603.49z" fill="#fff"/></svg>