<svg width="70" height="68" fill="none" xmlns="http://www.w3.org/2000/svg"><path d="M45.945 5.313c-.755 0-1.367.595-1.367 1.328 0 .733.612 1.328 1.367 1.328s1.367-.595 1.367-1.328c0-.734-.612-1.329-1.367-1.329zm-21.875 0c-.755 0-1.367.595-1.367 1.328 0 .733.612 1.328 1.367 1.328s1.367-.595 1.367-1.328c0-.734-.613-1.329-1.367-1.329z" fill="#1E4150"/><path d="M63.443 65.754l-9.047-9.182c3.655-.127 6.588-3.053 6.588-6.635V10.529a9.16 9.16 0 00-2.174-5.9 9.646 9.646 0 00-5.534-3.219A78.209 78.209 0 0038.509 0h-7.223c-4.704 0-9.604.438-14.562 1.4-4.457.867-7.693 4.701-7.693 9.117v39.42c0 3.612 2.983 6.557 6.681 6.637l-9.149 9.174a1.3 1.3 0 00-.277 1.442c.214.49.71.81 1.259.81h9.775c.439 0 .85-.204 1.107-.549l4.148-5.56h24.987l4.148 5.56a1.38 1.38 0 001.107.549h9.638c.548 0 1.043-.317 1.258-.806a1.3 1.3 0 00-.27-1.44zM11.765 49.937v-39.42c0-3.154 2.311-5.893 5.495-6.512a73.746 73.746 0 0114.026-1.349h7.223c4.768 0 9.557.457 14.235 1.359a6.89 6.89 0 013.953 2.298 6.544 6.544 0 011.553 4.215v39.41c0 2.197-1.84 3.984-4.102 3.984H15.867c-2.262 0-4.102-1.787-4.102-3.984zm4.858 15.407h-5.85l8.742-8.766h3.646l-6.538 8.766zm7.933-6.11l1.981-2.656H43.6l1.981 2.656H24.556zm28.958 6.11l-6.537-8.766h3.64l8.637 8.766h-5.74z" fill="#1E4150"/><path d="M54.148 10.625H15.867c-.755 0-1.368.595-1.368 1.328V34c0 .733.613 1.328 1.368 1.328h38.28c.756 0 1.368-.595 1.368-1.328V11.953c0-.733-.612-1.328-1.367-1.328zM33.64 32.672H17.234v-19.39H33.64v19.39zm19.14 0H36.375v-19.39h16.407v19.39zM40.476 5.313H29.54c-.755 0-1.368.594-1.368 1.328 0 .733.613 1.328 1.368 1.328h10.937c.755 0 1.367-.595 1.367-1.328 0-.734-.612-1.329-1.367-1.329zm9.57 34c-3.015 0-5.468 2.383-5.468 5.312 0 2.93 2.453 5.313 5.468 5.313 3.016 0 5.47-2.384 5.47-5.313 0-2.93-2.454-5.313-5.47-5.313zm0 7.968c-1.507 0-2.734-1.191-2.734-2.656s1.227-2.656 2.734-2.656c1.508 0 2.735 1.191 2.735 2.656s-1.227 2.656-2.735 2.656zm-30.078-7.968c-3.015 0-5.469 2.383-5.469 5.312 0 2.93 2.454 5.313 5.47 5.313 3.015 0 5.468-2.384 5.468-5.313 0-2.93-2.453-5.313-5.469-5.313zm0 7.968c-1.508 0-2.734-1.191-2.734-2.656s1.226-2.656 2.734-2.656 2.735 1.191 2.735 2.656-1.227 2.656-2.735 2.656zm20.508-6.641H29.54c-.755 0-1.368.595-1.368 1.329 0 .733.613 1.328 1.368 1.328h10.937c.755 0 1.367-.595 1.367-1.328 0-.734-.612-1.328-1.367-1.328zm0 5.313H29.54c-.755 0-1.368.595-1.368 1.328 0 .734.613 1.328 1.368 1.328h10.937c.755 0 1.367-.594 1.367-1.328 0-.733-.612-1.328-1.367-1.328z" fill="#1E4150"/></svg>