<svg width="14" height="13" fill="none" xmlns="http://www.w3.org/2000/svg"><g clip-path="url(#clip0)"><path d="M13.622 2.624a5.54 5.54 0 01-1.506.405 2.558 2.558 0 001.15-1.416 5.29 5.29 0 01-1.658.62 2.645 2.645 0 00-1.91-.811c-1.448 0-2.614 1.151-2.614 2.563 0 .203.018.399.061.585a7.452 7.452 0 01-5.39-2.68 2.54 2.54 0 00-.358 1.294c0 .888.467 1.675 1.162 2.13a2.623 2.623 0 01-1.182-.316v.029c0 1.245.907 2.28 2.095 2.518a2.66 2.66 0 01-.685.084c-.168 0-.337-.01-.495-.044A2.634 2.634 0 004.735 9.37a5.323 5.323 0 01-3.242 1.093c-.214 0-.42-.01-.626-.035a7.47 7.47 0 004.012 1.15c4.812 0 7.442-3.906 7.442-7.292 0-.113-.004-.223-.01-.331a5.16 5.16 0 001.311-1.33z" fill="#fff"/></g><defs><clipPath id="clip0"><path fill="#fff" transform="translate(.867 .25)" d="M0 0h12.755v12.5H0z"/></clipPath></defs></svg>