<svg width="50" height="50" fill="none" xmlns="http://www.w3.org/2000/svg"><path d="M49.749 23.292H47.35V12.257a4.803 4.803 0 00-4.798-4.798h-3.249L35.978 1.48A2.878 2.878 0 0032.063.363l-12.76 7.096H5.048A4.803 4.803 0 00.25 12.257v32.945A4.803 4.803 0 005.049 50h37.503a4.803 4.803 0 004.798-4.798v-9.675h2.399V23.291zM42.552 9.378a2.873 2.873 0 012.847 2.56h-3.606l-1.422-2.56h2.181zM32.997 2.04a.978.978 0 011.304.372l5.296 9.524H15.2L32.997 2.04zM45.43 45.202a2.882 2.882 0 01-2.879 2.879H5.049a2.882 2.882 0 01-2.879-2.879V12.257a2.882 2.882 0 012.879-2.88h10.803l-4.602 2.56H5.649a.96.96 0 100 1.92H45.43v9.436h-7.017a5.918 5.918 0 00-5.91 5.91v.413a5.918 5.918 0 005.91 5.912h7.018v9.674zm2.399-11.595h-9.417a3.996 3.996 0 01-3.991-3.991v-.413a3.996 3.996 0 013.992-3.992h9.416v8.396zm-6.477-4.119a2.118 2.118 0 11-4.236.001 2.118 2.118 0 014.236-.001z" fill="#1E4150"/></svg>