<svg width="58" height="58" viewBox="0 0 58 58" fill="none" xmlns="http://www.w3.org/2000/svg">
<path d="M50.688 48.222C55.232 43.101 58 36.369 58 29C58 21.333 55.004 14.357 50.128 9.166V9.165C50.124 9.159 50.118 9.157 50.115 9.152C45.036 3.753 37.92 0.297 30.005 0.026L30.004 0.025L29.439 0.01C29.293 0.005 29.147 0 29 0C28.853 0 28.707 0.005 28.561 0.01L27.998 0.025L27.997 0.026C20.082 0.297 12.966 3.753 7.887 9.152C7.883 9.157 7.877 9.159 7.874 9.165C7.874 9.165 7.874 9.166 7.873 9.167C2.996 14.357 0 21.333 0 29C0 36.369 2.768 43.101 7.312 48.222C7.318 48.231 7.318 48.241 7.325 48.25C7.343 48.275 7.369 48.287 7.388 48.31C12.494 54.018 19.82 57.695 27.996 57.975L27.997 57.976L28.56 57.991C28.707 57.995 28.853 58 29 58C29.147 58 29.293 57.995 29.439 57.99L30.002 57.975L30.003 57.974C38.188 57.693 45.522 54.009 50.628 48.289C50.641 48.272 50.662 48.267 50.674 48.249C50.682 48.241 50.682 48.231 50.688 48.222ZM2.025 30H14.028C14.141 34.239 14.969 38.358 16.443 42.217C13.599 43.246 10.88 44.626 8.332 46.348C4.585 41.891 2.253 36.21 2.025 30ZM8.878 11.023C11.366 12.641 14.015 13.937 16.778 14.905C15.086 19.012 14.15 23.44 14.028 28H2.025C2.264 21.493 4.812 15.568 8.878 11.023ZM55.975 28H43.972C43.85 23.44 42.914 19.012 41.222 14.905C43.985 13.937 46.634 12.641 49.122 11.023C53.188 15.568 55.736 21.493 55.975 28ZM28 14.963C25.109 14.881 22.271 14.45 19.529 13.68C21.556 9.522 24.418 5.769 28 2.644V14.963ZM28 16.963V28H16.028C16.151 23.652 17.063 19.435 18.694 15.525C21.7 16.396 24.821 16.878 28 16.963ZM30 16.963C33.179 16.878 36.3 16.397 39.307 15.525C40.938 19.435 41.85 23.652 41.973 28H30V16.963ZM30 14.963V2.644C33.582 5.769 36.444 9.522 38.471 13.68C35.729 14.45 32.891 14.881 30 14.963ZM40.409 13.072C38.488 9.047 35.822 5.38 32.521 2.237C38.377 3.003 43.646 5.651 47.704 9.555C45.4 11.017 42.956 12.193 40.409 13.072ZM17.591 13.072C15.044 12.193 12.6 11.017 10.297 9.555C14.354 5.651 19.624 3.003 25.48 2.237C22.178 5.38 19.512 9.047 17.591 13.072ZM16.028 30H28V40.038C24.693 40.126 21.453 40.642 18.339 41.579C16.932 37.924 16.141 34.019 16.028 30ZM28 42.038V55.356C24.166 52.011 21.16 47.947 19.116 43.439C21.983 42.594 24.961 42.124 28 42.038ZM30 55.356V42.038C33.039 42.123 36.017 42.594 38.884 43.438C36.84 47.947 33.834 52.011 30 55.356ZM30 40.038V30H41.972C41.859 34.019 41.068 37.924 39.66 41.58C36.547 40.642 33.307 40.126 30 40.038ZM43.972 30H55.975C55.747 36.21 53.416 41.891 49.668 46.348C47.12 44.626 44.401 43.246 41.557 42.217C43.032 38.358 43.859 34.239 43.972 30ZM9.691 47.846C12.057 46.274 14.576 45.01 17.208 44.065C19.153 48.425 21.945 52.398 25.479 55.763C19.328 54.958 13.823 52.078 9.691 47.846ZM32.521 55.763C36.055 52.399 38.847 48.426 40.792 44.065C43.424 45.01 45.942 46.274 48.309 47.846C44.177 52.078 38.672 54.958 32.521 55.763Z" fill="white"/>
</svg>
