<svg width="66" height="70" viewBox="0 0 66 70" fill="none" xmlns="http://www.w3.org/2000/svg">
<path d="M65.2286 15.4453L33.4459 0.101924C33.1641 -0.0339746 32.836 -0.0339746 32.5543 0.101924L0.771445 15.4453C0.41707 15.6164 0.191895 15.9752 0.191895 16.3687V53.6313C0.191895 54.0248 0.41707 54.3836 0.771445 54.5547L32.5542 69.8981C32.695 69.966 32.8476 70.0001 33 70.0001C33.1525 70.0001 33.3049 69.966 33.4459 69.8981L65.2286 54.5547C65.583 54.3836 65.8081 54.0248 65.8081 53.6313V16.3689C65.8081 15.9751 65.5828 15.6165 65.2286 15.4453ZM33 2.16405L62.4242 16.3687L53.8947 20.4864C53.8407 20.4453 53.7837 20.4073 53.7211 20.377L24.4968 6.26903L33 2.16405ZM22.1811 7.42841L51.5625 21.6124L45.5448 24.5176L16.1755 10.3393L22.1811 7.42841ZM52.2499 23.5577V34.2964L46.629 37.01V26.2713L52.2499 23.5577ZM63.7574 52.9879L34.0254 67.3409V32.3557L41.1174 28.9319C41.6274 28.6857 41.8412 28.0728 41.595 27.5627C41.3487 27.0529 40.7358 26.8388 40.2257 27.0851L33 30.5735L30.1568 29.2009C29.6467 28.9544 29.0338 29.1685 28.7876 29.6784C28.5413 30.1884 28.7552 30.8014 29.2651 31.0477L31.9746 32.3557V67.3409L2.24268 52.9876V18.0024L24.8833 28.9324C25.027 29.0018 25.1789 29.0346 25.3283 29.0346C25.7095 29.0346 26.0756 28.8211 26.2524 28.4548C26.4986 27.9448 26.2848 27.3318 25.7748 27.0856L3.57582 16.3687L13.762 11.4512L44.564 26.3212C44.5685 26.3275 44.5735 26.3331 44.5782 26.3392V38.6438C44.5782 38.9966 44.7596 39.3246 45.0585 39.5123C45.2244 39.6165 45.4138 39.6691 45.6037 39.6691C45.7557 39.6691 45.9082 39.6354 46.0494 39.5672L53.7211 35.8636C54.0755 35.6925 54.3007 35.3338 54.3007 34.9402V22.5678L63.7574 18.0025V52.9879Z" fill="white"/>
</svg>
