<svg width="70" height="70" viewBox="0 0 70 70" fill="none" xmlns="http://www.w3.org/2000/svg">
<g clip-path="url(#clip0)">
<path d="M69.4237 19.9947L35.5903 0.161358C35.2345 -0.0463177 34.797 -0.0532904 34.4366 0.146182L0.603203 18.8129C0.231055 19.0171 0 19.409 0 19.8337V68.8337C0 69.4789 0.522676 70.0003 1.16662 70.0003H7C7.64394 70.0003 8.16662 69.4789 8.16662 68.8337V28.0004H61.8332V68.8338C61.8332 69.479 62.3547 70.0004 62.9999 70.0004H68.8332C69.4784 70.0004 69.9999 69.479 69.9999 68.8338V21.0004C70 20.5862 69.7807 20.2035 69.4237 19.9947ZM67.6666 67.6671H64.1666V26.8337C64.1666 26.1897 63.6452 25.6671 63 25.6671H7C6.35605 25.6671 5.83338 26.1897 5.83338 26.8337V67.6671H2.33338V20.5221L34.9825 2.50868L67.6666 21.6689V67.6671Z" fill="white"/>
<path d="M58.3336 53.6663H44.3336C43.6884 53.6663 43.167 54.1877 43.167 54.8329V68.8329C43.167 69.4781 43.6884 69.9995 44.3336 69.9995H58.3336C58.9788 69.9995 59.5002 69.4781 59.5002 68.8329V54.8329C59.5002 54.1877 58.9788 53.6663 58.3336 53.6663ZM57.1669 67.6663H45.5002V55.9996H57.1669V67.6663Z" fill="#F4D35E"/>
<path d="M52.4998 54.833V58.333H50.1664V54.833H47.833V59.4996C47.833 60.1448 48.3545 60.6663 48.9996 60.6663H53.6663C54.3114 60.6663 54.8329 60.1448 54.8329 59.4996V54.833H52.4998Z" fill="#F4D35E"/>
<path d="M44.3336 53.6663H30.3336C29.6897 53.6663 29.167 54.1877 29.167 54.8329V68.8329C29.167 69.4781 29.6897 69.9995 30.3336 69.9995H44.3336C44.9788 69.9995 45.5002 69.4781 45.5002 68.8329V54.8329C45.5002 54.1877 44.9788 53.6663 44.3336 53.6663ZM43.1669 67.6663H31.5002V55.9996H43.1669V67.6663Z" fill="#F4D35E"/>
<path d="M38.5003 54.833V58.333H36.1669V54.833H33.8335V59.4996C33.8335 60.1448 34.3562 60.6663 35.0001 60.6663H39.6667C40.3119 60.6663 40.8334 60.1448 40.8334 59.4996V54.833H38.5003Z" fill="#F4D35E"/>
<path d="M58.3336 39.6663H44.3336C43.6884 39.6663 43.167 40.1877 43.167 40.8329V54.8329C43.167 55.4781 43.6884 55.9995 44.3336 55.9995H58.3336C58.9788 55.9995 59.5002 55.4781 59.5002 54.8329V40.8329C59.5002 40.1877 58.9788 39.6663 58.3336 39.6663ZM57.1669 53.6663H45.5002V41.9996H57.1669V53.6663Z" fill="#F4D35E"/>
<path d="M52.4998 40.833V44.333H50.1664V40.833H47.833V45.4996C47.833 46.1448 48.3545 46.6662 48.9996 46.6662H53.6663C54.3114 46.6662 54.8329 46.1448 54.8329 45.4996V40.833H52.4998Z" fill="#F4D35E"/>
<path d="M63 34.9998H7V37.3331H63V34.9998Z" fill="white"/>
<path d="M63 30.333H7V32.6664H63V30.333Z" fill="white"/>
<path d="M40.8332 16.333H29.1666C28.5227 16.333 28 16.8557 28 17.4996V22.1662C28 22.8102 28.5227 23.3329 29.1666 23.3329H40.8332C41.4784 23.3329 41.9999 22.8102 41.9999 22.1662V17.4996C41.9999 16.8557 41.4784 16.333 40.8332 16.333ZM39.6665 20.9998H30.3331V18.6664H39.6665V20.9998Z" fill="white"/>
</g>
<defs>
<clipPath id="clip0">
<rect width="70" height="70" fill="white"/>
</clipPath>
</defs>
</svg>
