<svg width="70" height="70" viewBox="0 0 70 70" fill="none" xmlns="http://www.w3.org/2000/svg">
<g clip-path="url(#clip0)">
<path d="M5.64527 6.77419H39.5162V14.6774C39.5162 15.302 40.0207 15.8065 40.6453 15.8065H48.5485V24.8387H50.8066V14.6774C50.8066 14.3648 50.6792 14.0826 50.4747 13.8781L41.4457 4.84911C41.2401 4.64348 40.9579 4.51613 40.6453 4.51613H10.1614V2.25806H53.0646V27.0968H55.3227V1.12903C55.3227 0.504426 54.8183 0 54.1937 0H9.03237C8.40776 0 7.90334 0.504426 7.90334 1.12903V4.51613H4.51624C3.89163 4.51613 3.38721 5.02056 3.38721 5.64516V68.871C3.38721 69.4956 3.89163 70 4.51624 70H42.9033V67.7419H5.64527V6.77419ZM41.7743 8.37072L46.952 13.5484H41.7743V8.37072Z" fill="white"/>
<path d="M65.4836 33.871H63.7835C58.742 33.871 54.0004 31.6504 50.7737 27.7787L50.5455 27.5042C50.1177 26.9882 49.2378 26.9882 48.81 27.5042L48.5818 27.7776C45.354 31.6504 40.6124 33.871 35.5709 33.871H33.8707C33.2461 33.871 32.7417 34.3754 32.7417 35V53.2856C32.7417 57.7317 35.1398 61.8641 38.9999 64.0693L49.1171 69.8512C49.2902 69.9504 49.4842 70 49.6772 70C49.8701 70 50.0642 69.9504 50.2373 69.8512L60.3545 64.0693C64.2146 61.8641 66.6127 57.7317 66.6127 53.2856V35C66.6127 34.3754 66.1082 33.871 65.4836 33.871ZM64.3546 53.2856C64.3546 56.9235 62.3937 60.304 59.2343 62.1078L49.6772 67.5716L40.1201 62.1095C36.9607 60.304 34.9998 56.9235 34.9998 53.2856V36.129H35.5709C40.9586 36.129 46.0464 33.8903 49.6772 29.9519C53.3069 33.8903 58.3958 36.129 63.7835 36.129H64.3546V53.2856Z" fill="white"/>
<path d="M49.6772 37.2581C42.8297 37.2581 37.2578 42.8299 37.2578 49.6774C37.2578 56.5249 42.8297 62.0968 49.6772 62.0968C56.5247 62.0968 62.0965 56.5249 62.0965 49.6774C62.0965 42.8299 56.5247 37.2581 49.6772 37.2581ZM49.6772 59.8387C44.0739 59.8387 39.5159 55.2807 39.5159 49.6774C39.5159 44.0741 44.0739 39.5161 49.6772 39.5161C55.2804 39.5161 59.8385 44.0741 59.8385 49.6774C59.8385 55.2807 55.2804 59.8387 49.6772 59.8387Z" fill="white"/>
<path d="M49.1389 53.1874L47.0887 51.1371L45.4922 52.7336L48.8793 56.1207C49.0926 56.3352 49.3815 56.4515 49.6775 56.4515C49.7691 56.4515 49.8617 56.4405 49.9532 56.4179C50.3391 56.3203 50.6439 56.027 50.7592 55.6466L54.1463 44.3563L51.983 43.708L49.1389 53.1874Z" fill="#F4D35E"/>
<path d="M7.90332 18.0645H37.2582V20.3225H7.90332V18.0645Z" fill="white"/>
<path d="M7.90332 22.5806H37.2582V24.8386H7.90332V22.5806Z" fill="white"/>
<path d="M7.90332 27.0967H37.2582V29.3547H7.90332V27.0967Z" fill="white"/>
<path d="M7.90332 31.6128H30.484V33.8709H7.90332V31.6128Z" fill="white"/>
<path d="M7.90332 36.1292H30.484V38.3872H7.90332V36.1292Z" fill="white"/>
<path d="M7.90332 40.6453H30.484V42.9033H7.90332V40.6453Z" fill="white"/>
<path d="M7.90332 54.1936H30.484V56.4517H7.90332V54.1936Z" fill="white"/>
<path d="M7.90332 58.7097H30.484V60.9678H7.90332V58.7097Z" fill="white"/>
<path d="M7.90332 63.2258H30.484V65.4839H7.90332V63.2258Z" fill="white"/>
<path d="M9.03223 9.03223H11.2903V11.2903H9.03223V9.03223Z" fill="white"/>
<path d="M13.5483 9.03223H15.8064V11.2903H13.5483V9.03223Z" fill="white"/>
<path d="M18.0645 9.03223H20.3225V11.2903H18.0645V9.03223Z" fill="white"/>
<path d="M22.5806 9.03223H37.258V11.2903H22.5806V9.03223Z" fill="white"/>
</g>
<defs>
<clipPath id="clip0">
<rect width="70" height="70" fill="white"/>
</clipPath>
</defs>
</svg>
