<svg width="70" height="70" viewBox="0 0 70 70" fill="none" xmlns="http://www.w3.org/2000/svg">
<path d="M37.3215 46.08H55.9823C56.6821 46.08 57.1486 45.6135 57.1486 44.9137V34.417C57.1486 33.7172 56.6821 33.2507 55.9823 33.2507H37.3215C36.6217 33.2507 36.1553 33.7172 36.1553 34.417V44.9137C36.1551 45.6134 36.6217 46.08 37.3215 46.08ZM38.4878 35.5832H54.8161V43.7473H38.4878V35.5832Z" fill="#F4D35E"/>
<path d="M5.83178 30.918H15.1622C15.862 30.918 16.3285 30.4515 16.3285 29.7517C16.3285 29.0519 15.862 28.5854 15.1622 28.5854H5.83178C5.132 28.5854 4.66553 29.0519 4.66553 29.7517C4.66553 30.4515 5.132 30.918 5.83178 30.918Z" fill="#F4D35E"/>
<path d="M19.8269 30.918H29.1574C29.8571 30.918 30.3236 30.4515 30.3236 29.7517C30.3236 29.0519 29.8571 28.5854 29.1574 28.5854H19.8269C19.1271 28.5854 18.6606 29.0519 18.6606 29.7517C18.6606 30.4515 19.1271 30.918 19.8269 30.918Z" fill="#F4D35E"/>
<path d="M5.83178 35.5832H20.9937C21.6934 35.5832 22.1599 35.1168 22.1599 34.417C22.1599 33.7172 21.6934 33.2507 20.9937 33.2507H5.83178C5.132 33.2507 4.66553 33.7172 4.66553 34.417C4.66553 35.1168 5.132 35.5832 5.83178 35.5832Z" fill="#F4D35E"/>
<path d="M29.1573 33.2507H25.6584C24.9587 33.2507 24.4922 33.7172 24.4922 34.417C24.4922 35.1168 24.9587 35.5832 25.6584 35.5832H29.1573C29.8571 35.5832 30.3236 35.1168 30.3236 34.417C30.3236 33.7172 29.8571 33.2507 29.1573 33.2507Z" fill="#F4D35E"/>
<path d="M68.9285 18.7885C68.1121 17.7389 67.0624 17.1557 65.7794 17.0391L62.9803 16.6999V13.4235V11.0909C62.9803 8.52513 60.881 6.42578 58.3152 6.42578H4.66516C2.09934 6.42564 0 8.52499 0 11.0909V13.4236V22.7541V48.4127C0 50.5192 1.41555 52.3104 3.34214 52.8844C3.28337 55.2437 5.06849 57.292 7.46442 57.5098L61.3476 63.5745C61.4642 63.5745 61.6975 63.5745 61.8141 63.5745C64.1467 63.5745 66.246 61.8251 66.4792 59.6092L69.9781 22.1709C70.0947 21.0045 69.7448 19.7215 68.9285 18.7885ZM2.33265 14.5899H60.6478V17.6223V21.5877H2.33265V14.5899ZM4.66516 8.75829H58.315C59.598 8.75829 60.6477 9.80797 60.6477 11.0909V12.2572H2.33265V11.0909C2.33265 9.80797 3.38232 8.75829 4.66516 8.75829ZM2.33265 48.4125V23.9202H60.6478V48.4125C60.6478 49.6955 59.5981 50.7452 58.3152 50.7452H4.78188H4.6653C3.38232 50.7452 2.33265 49.6955 2.33265 48.4125ZM67.6455 21.7042L64.1466 59.1426C64.03 60.4255 62.8636 61.3585 61.5807 61.2419L7.81418 55.1772C6.64792 55.0606 5.83142 54.1275 5.71483 53.0778H58.315C60.8808 53.0778 62.9802 50.9785 62.9802 48.4127V22.7539V18.9051L65.6627 19.1384C66.2459 19.1384 66.829 19.4883 67.1789 19.9548C67.5289 20.4213 67.7622 21.1211 67.6455 21.7042Z" fill="white"/>
</svg>
