<svg width="70" height="71" viewBox="0 0 70 71" fill="none" xmlns="http://www.w3.org/2000/svg">
<path d="M65.0997 32.0835L63.287 24.729C63.7826 24.6222 64.1544 24.1763 64.1544 23.642V22.4562C64.1544 19.8816 62.0893 17.7871 59.5511 17.7871H51.2944V15.3412C51.2944 14.0743 50.2783 13.0437 49.0293 13.0437H6.94148C5.69242 13.0437 4.67633 14.0743 4.67633 15.3412V35.4999C4.67633 36.1138 5.16701 36.6117 5.7724 36.6117C6.37766 36.6117 6.86848 36.114 6.86848 35.4999V15.3412C6.86848 15.3003 6.90115 15.2672 6.94148 15.2672H49.0291C49.0695 15.2672 49.1021 15.3003 49.1021 15.3412V35.5002C49.1021 36.1141 49.5928 36.612 50.1982 36.612C50.8035 36.612 51.2943 36.1143 51.2943 35.5002V34.24H64.2236C64.2247 34.24 64.2255 34.2402 64.2265 34.2402C64.2276 34.2402 64.2286 34.2401 64.2295 34.2401C65.8205 34.2412 67.1714 35.3004 67.6354 36.7599H64.2273C63.6221 36.7599 63.1313 37.2576 63.1313 37.8716V40.2432C63.1313 42.164 64.6718 43.7265 66.5655 43.7265H67.8077V48.6179H64.9418C64.0004 45.8607 61.4162 43.8746 58.3818 43.8746C55.3473 43.8746 52.763 45.8607 51.8217 48.6179H51.294V40.2431C51.294 39.6292 50.8033 39.1313 50.1979 39.1313C49.5927 39.1313 49.1019 39.629 49.1019 40.2431V48.6176H26.3617C25.4203 45.8604 22.8361 43.8743 19.8017 43.8743C16.7672 43.8743 14.1829 45.8604 13.2416 48.6176H6.94148C6.90115 48.6176 6.86848 48.5845 6.86848 48.5436V46.0978H11.6179C12.2232 46.0978 12.714 45.6001 12.714 44.9861C12.714 44.372 12.2233 43.8743 11.6179 43.8743H1.09607C0.49082 43.8743 0 44.372 0 44.9861C0 45.6001 0.490684 46.0978 1.09607 46.0978H4.67647V48.5436C4.67647 49.8105 5.69256 50.8411 6.94162 50.8411H12.8621C12.8618 50.8658 12.8602 50.8903 12.8602 50.9151C12.8602 54.7974 15.9742 57.9558 19.8017 57.9558C23.6291 57.9558 26.7431 54.7974 26.7431 50.9151C26.7431 50.8902 26.7415 50.8658 26.7412 50.8411H51.4422C51.4419 50.8658 51.4403 50.8903 51.4403 50.9151C51.4403 54.7974 54.5543 57.9558 58.3818 57.9558C62.2092 57.9558 65.3233 54.7974 65.3233 50.9151C65.3233 50.8902 65.3216 50.8658 65.3214 50.8411H68.9038C69.509 50.8411 69.9999 50.3434 69.9999 49.7293V37.8714C70 34.9437 67.8703 32.5113 65.0997 32.0835ZM51.2944 20.0104H59.5511C60.8807 20.0104 61.9624 21.1076 61.9624 22.4562V22.5302H51.2944V20.0104ZM51.2944 32.0166V24.7536H61.0336L62.8238 32.0166H51.2944ZM19.8017 55.7327C17.1828 55.7327 15.0522 53.5718 15.0522 50.9154C15.0522 48.259 17.1828 46.0981 19.8017 46.0981C22.4205 46.0981 24.5511 48.259 24.5511 50.9154C24.5511 53.5718 22.4205 55.7327 19.8017 55.7327ZM58.3821 55.7327C55.7632 55.7327 53.6326 53.5718 53.6326 50.9154C53.6326 48.259 55.7632 46.0981 58.3821 46.0981C61.0009 46.0981 63.1315 48.259 63.1315 50.9154C63.1315 53.5718 61.0009 55.7327 58.3821 55.7327ZM67.808 41.5031H66.5658C65.8808 41.5031 65.3235 40.9378 65.3235 40.2431V38.9831H67.8079V41.5031H67.808Z" fill="white"/>
<path d="M19.8018 48.6179C18.5527 48.6179 17.5366 49.6485 17.5366 50.9154C17.5366 52.1823 18.5527 53.213 19.8018 53.213C21.0508 53.213 22.0669 52.1823 22.0669 50.9154C22.0669 49.6485 21.0508 48.6179 19.8018 48.6179Z" fill="white"/>
<path d="M58.3819 48.6179C57.1328 48.6179 56.1167 49.6485 56.1167 50.9154C56.1167 52.1823 57.1328 53.213 58.3819 53.213C59.6309 53.213 60.647 52.1823 60.647 50.9154C60.647 49.6485 59.6309 48.6179 58.3819 48.6179Z" fill="white"/>
<path d="M45.5221 43.8748H29.1547C28.5494 43.8748 28.0586 44.3724 28.0586 44.9865C28.0586 45.6005 28.5493 46.0982 29.1547 46.0982H45.5221C46.1273 46.0982 46.6182 45.6005 46.6182 44.9865C46.6182 44.3724 46.1275 43.8748 45.5221 43.8748Z" fill="white"/>
<path d="M17.4632 39.1316H3.43396C2.82871 39.1316 2.33789 39.6293 2.33789 40.2433C2.33789 40.8574 2.82857 41.3551 3.43396 41.3551H17.4632C18.0685 41.3551 18.5593 40.8574 18.5593 40.2433C18.5593 39.6293 18.0685 39.1316 17.4632 39.1316Z" fill="white"/>
<path d="M38.1135 24.0416C37.6855 23.6075 36.9914 23.6075 36.5635 24.0417L26.8165 33.9278L21.746 28.7848C21.318 28.3507 20.624 28.3507 20.196 28.7848C19.768 29.219 19.768 29.9228 20.196 30.357L26.0416 36.286C26.2556 36.5032 26.5361 36.6116 26.8165 36.6116C27.0969 36.6116 27.3776 36.5032 27.5914 36.286L38.1133 25.6138C38.5414 25.1795 38.5414 24.4758 38.1135 24.0416Z" fill="#F4D35E"/>
</svg>
