<svg width="50" height="50" viewBox="0 0 50 50" fill="none" xmlns="http://www.w3.org/2000/svg">
<g clip-path="url(#clip0)">
<path d="M42.2208 17.7319L45.973 14.3959L45.9873 14.3841C49.0041 11.5892 50.4565 7.49133 49.8733 3.41999L49.737 2.45327C49.5734 1.35433 48.7107 0.491262 47.6118 0.327217L46.6524 0.191737C42.5729 -0.392622 38.4669 1.06583 35.6692 4.09209L32.3332 7.84472L30.5303 6.8074C25.784 4.08515 20.4064 2.6569 14.935 2.66465L13.3835 2.67037C11.8961 2.6773 10.5238 3.47264 9.77821 4.7597L9.48603 5.26734C9.25587 5.66684 9.39258 6.17734 9.79167 6.4079L25.7142 15.6009L13.2717 29.6982L12.3189 30.9232C9.73495 29.5076 6.83642 28.7641 3.88973 28.7613L2.63123 28.7556C1.74041 28.7658 0.919371 29.2412 0.467636 30.0092L0.112205 30.6176C0.00120938 30.8094 -0.028988 31.0379 0.0285503 31.2521C0.0856802 31.4664 0.226057 31.6492 0.418259 31.7598L8.52461 36.44C8.29487 36.8843 8.07695 37.33 7.87863 37.7878C7.44281 38.8202 7.54973 40.002 8.16387 40.9394C8.77802 41.8767 9.81861 42.4468 10.9392 42.4598C11.3991 42.459 11.8541 42.3643 12.2764 42.1824C12.2976 42.1738 12.3189 42.164 12.3389 42.153C12.7567 41.9734 13.1872 41.762 13.6243 41.5364L18.3045 49.6427C18.4146 49.8357 18.5971 49.9773 18.8117 50.0353C19.0263 50.0936 19.2553 50.0639 19.4479 49.9529L20.062 49.5978H20.0669C20.8345 49.142 21.3079 48.3173 21.314 47.4249L21.3083 46.1819C21.3046 43.2327 20.5591 40.3317 19.1402 37.7462L20.3477 36.8068L34.456 24.3496L43.6539 40.2742C43.8849 40.6733 44.3954 40.8104 44.7949 40.5803L45.3021 40.2885C46.5896 39.5425 47.3849 38.1698 47.3914 36.6815L47.3963 35.1321C47.4188 29.659 45.9897 24.2774 43.2552 19.5364L42.2208 17.7319ZM13.3896 4.34183L14.9407 4.33612C20.1179 4.32428 25.2066 5.67623 29.6954 8.25565L31.2199 9.1326L26.8291 14.3208L11.3603 5.38731C11.8308 4.7348 12.5849 4.34632 13.3896 4.34183ZM2.63531 30.427L3.88891 30.4327C6.4663 30.4331 9.00491 31.0591 11.2868 32.2572L10.7621 32.9334C10.4585 33.317 10.1704 33.7222 9.88961 34.1384C9.80596 34.2588 9.73087 34.3816 9.6513 34.5045C9.54846 34.664 9.44073 34.8179 9.34116 34.9815L1.98689 30.7384C2.14604 30.5433 2.38353 30.4291 2.63531 30.427ZM19.6323 46.1831L19.6385 47.4179C19.6385 47.6738 19.5234 47.9158 19.3259 48.0774L15.0836 40.7231C15.2456 40.6243 15.3978 40.519 15.5557 40.417C15.6802 40.3338 15.8067 40.2575 15.9287 40.1746C16.3339 39.9025 16.7277 39.6225 17.0986 39.3307L17.1235 39.3124L17.8091 38.779C19.0076 41.063 19.6331 43.6037 19.6323 46.1831ZM19.2806 35.5198L17.5606 36.857C17.5565 36.857 17.5508 36.857 17.5467 36.8644L16.089 38.0012C15.2835 38.6325 14.429 39.1993 13.5333 39.6951C12.9146 40.0457 12.2776 40.3632 11.6255 40.6464C11.6068 40.6537 11.5892 40.6619 11.5709 40.6713C10.942 40.9141 10.2287 40.757 9.75984 40.273C9.29056 39.7886 9.15631 39.0708 9.4191 38.4497C9.70394 37.7927 10.0231 37.1512 10.376 36.5277C10.8727 35.6279 11.4403 34.7693 12.074 33.9605L13.2023 32.5127C13.2023 32.5127 13.2023 32.5037 13.2089 32.4996L14.5588 30.7612L36.9064 5.21551C38.9607 2.99927 41.8445 1.73792 44.8667 1.73466C45.3841 1.73466 45.9007 1.77179 46.4129 1.84647L47.3723 1.98195C47.7387 2.03622 48.0276 2.3231 48.0831 2.68995L48.2194 3.65586C48.723 7.18119 47.4653 10.7294 44.854 13.1505L19.2806 35.5198ZM45.7232 36.6766C45.7187 37.4805 45.3299 38.2343 44.6769 38.7039L35.7446 23.2311L40.9345 18.8443L41.8127 20.3705C44.3999 24.8577 45.751 29.9508 45.7281 35.1305L45.7232 36.6766Z" fill="#1E4150"/>
<path d="M40.367 6.26337C41.3525 5.68023 42.6082 5.83897 43.4174 6.649C44.2266 7.45943 44.3845 8.71466 43.8001 9.69974C43.5647 10.0968 43.6957 10.6093 44.0923 10.8452C44.4894 11.0807 45.0023 10.9501 45.2378 10.553C46.2114 8.91175 45.9495 6.81916 44.6008 5.46844C43.2521 4.11814 41.1599 3.85289 39.517 4.8241C39.2567 4.97427 39.0971 5.25298 39.0991 5.55332C39.1008 5.85407 39.264 6.13034 39.5264 6.27724C39.7888 6.42415 40.1099 6.41884 40.367 6.26337Z" fill="#1E4150"/>
</g>
<defs>
<clipPath id="clip0">
<rect width="50" height="50" fill="white"/>
</clipPath>
</defs>
</svg>
