<svg width="70" height="70" viewBox="0 0 70 70" fill="none" xmlns="http://www.w3.org/2000/svg">
<path d="M59.109 24.8237L64.3621 20.1533L64.3821 20.1367C68.6058 16.2239 70.639 10.4869 69.8226 4.78704L69.6318 3.43363C69.4027 1.89512 68.195 0.686814 66.6565 0.457151L65.3133 0.26748C59.6021 -0.550623 53.8536 1.49121 49.9368 5.72797L45.2664 10.9817L42.7424 9.52941C36.0976 5.71826 28.569 3.71871 20.909 3.72956L18.7369 3.73756C16.6545 3.74727 14.7333 4.86074 13.6895 6.66262L13.2804 7.37332C12.9582 7.93262 13.1496 8.64732 13.7083 8.9701L35.9999 21.8404L18.5804 41.5765L17.2464 43.2916C13.6289 41.3097 9.57098 40.2688 5.44562 40.2648L3.68373 40.2568C2.43658 40.2711 1.28712 40.9367 0.65469 42.0118L0.157087 42.8637C0.00169314 43.1322 -0.0405831 43.4521 0.0399704 43.752C0.119952 44.052 0.31648 44.3079 0.585562 44.4627L11.9344 51.015C11.6128 51.6371 11.3077 52.261 11.0301 52.902C10.4199 54.3474 10.5696 56.0019 11.4294 57.3141C12.2892 58.6264 13.746 59.4245 15.3148 59.4428C15.9587 59.4417 16.5957 59.3091 17.187 59.0543C17.2167 59.0423 17.2464 59.0286 17.2744 59.0132C17.8594 58.7618 18.4621 58.4659 19.074 58.15L25.6262 69.4988C25.7805 69.7691 26.0359 69.9673 26.3364 70.0484C26.6369 70.1301 26.9574 70.0884 27.227 69.933L28.0868 69.436H28.0937C29.1683 68.7979 29.831 67.6433 29.8396 66.3938L29.8316 64.6536C29.8264 60.5248 28.7827 56.4635 26.7963 52.8437L28.4867 51.5286L48.2383 34.0885L61.1154 56.3829C61.4388 56.9417 62.1535 57.1336 62.7128 56.8114L63.4229 56.4029C65.2254 55.3586 66.3388 53.4367 66.348 51.3532L66.3548 49.184C66.3863 41.5217 64.3856 33.9874 60.5573 27.35L59.109 24.8237ZM18.7455 6.07761L20.917 6.06961C28.1651 6.05304 35.2892 7.94576 41.5735 11.557L43.7079 12.7847L37.5607 20.0482L15.9044 7.54128C16.5631 6.62777 17.6189 6.08389 18.7455 6.07761ZM3.68944 42.5969L5.44447 42.6049C9.05281 42.6054 12.6069 43.4818 15.8016 45.1591L15.0669 46.1058C14.6418 46.6428 14.2385 47.2101 13.8454 47.7928C13.7283 47.9614 13.6232 48.1333 13.5118 48.3053C13.3678 48.5287 13.217 48.7441 13.0776 48.9731L2.78164 43.0328C3.00445 42.7597 3.33695 42.5997 3.68944 42.5969ZM27.4853 64.6553L27.4938 66.3841C27.4938 66.7423 27.3327 67.0811 27.0562 67.3073L21.117 57.0113C21.3438 56.8731 21.5569 56.7257 21.778 56.5829C21.9522 56.4663 22.1293 56.3595 22.3001 56.2435C22.8674 55.8625 23.4187 55.4706 23.938 55.0621L23.9729 55.0364L24.9327 54.2897C26.6106 57.4872 27.4864 61.0442 27.4853 64.6553ZM26.9928 49.7267L24.5848 51.5988C24.579 51.5988 24.571 51.5988 24.5653 51.6091L22.5247 53.2008C21.3969 54.0846 20.2006 54.8781 18.9466 55.5722C18.0805 56.063 17.1887 56.5075 16.2758 56.9039C16.2495 56.9142 16.2249 56.9257 16.1992 56.9388C15.3188 57.2787 14.3202 57.0588 13.6638 56.3812C13.0068 55.7031 12.8188 54.6982 13.1867 53.8286C13.5855 52.9088 14.0323 52.0108 14.5264 51.1378C15.2217 49.8781 16.0164 48.6761 16.9036 47.5438L18.4833 45.5168C18.4833 45.5168 18.4833 45.5042 18.4924 45.4985L20.3823 43.0648L51.669 7.30076C54.5449 4.19803 58.5823 2.43214 62.8133 2.42757C63.5377 2.42757 64.261 2.47956 64.978 2.5841L66.3211 2.77378C66.8342 2.84976 67.2386 3.25138 67.3163 3.76498L67.5071 5.11725C68.2121 10.0527 66.4514 15.0202 62.7956 18.4097L26.9928 49.7267ZM64.0125 51.3463C64.0062 52.4718 63.4618 53.527 62.5477 54.1846L50.0425 32.5225L57.3083 26.3811L58.5377 28.5177C62.1598 34.7998 64.0513 41.9302 64.0194 49.1817L64.0125 51.3463Z" fill="#1E4150"/>
</svg>
