<svg width="14" height="13" viewBox="0 0 14 13" fill="none" xmlns="http://www.w3.org/2000/svg">
<g clip-path="url(#clip0)">
<path d="M10.107 0.252601L8.45297 0.25C6.59472 0.25 5.39384 1.45744 5.39384 3.32627V4.74463H3.73078C3.58708 4.74463 3.4707 4.85881 3.4707 4.99964V7.05469C3.4707 7.19553 3.58721 7.30957 3.73078 7.30957H5.39384V12.4951C5.39384 12.636 5.51021 12.75 5.65392 12.75H7.82374C7.96745 12.75 8.08382 12.6358 8.08382 12.4951V7.30957H10.0283C10.172 7.30957 10.2884 7.19553 10.2884 7.05469L10.2892 4.99964C10.2892 4.93202 10.2617 4.86726 10.213 4.81941C10.1643 4.77155 10.098 4.74463 10.029 4.74463H8.08382V3.54227C8.08382 2.96436 8.22434 2.67099 8.99251 2.67099L10.1067 2.6706C10.2503 2.6706 10.3667 2.55642 10.3667 2.41571V0.507483C10.3667 0.366908 10.2505 0.252861 10.107 0.252601Z" fill="white"/>
</g>
<defs>
<clipPath id="clip0">
<rect width="12.7551" height="12.5" fill="white" transform="translate(0.541016 0.25)"/>
</clipPath>
</defs>
</svg>
