<svg width="18" height="17" viewBox="0 0 18 17" fill="none" xmlns="http://www.w3.org/2000/svg">
<g clip-path="url(#clip0)">
<path d="M6.60872 9.57255H9.19935C8.74461 10.8325 7.51302 11.7358 6.07115 11.7254C4.32165 11.7128 2.87504 10.3412 2.80712 8.6279C2.73432 6.79139 4.23777 5.27457 6.09587 5.27457C6.94546 5.27457 7.72076 5.59181 8.30525 6.11164C8.4437 6.23479 8.65444 6.23557 8.7906 6.10997L9.74212 5.23234C9.89091 5.09507 9.89146 4.86326 9.7431 4.72552C8.81615 3.86491 7.57269 3.32849 6.20146 3.30225C3.27677 3.24629 0.81152 5.59628 0.791148 8.46297C0.770595 11.3512 3.15349 13.6988 6.09587 13.6988C8.9255 13.6988 11.2371 11.5275 11.3919 8.79244C11.396 8.75815 11.3987 7.59924 11.3987 7.59924H6.60872C6.41238 7.59924 6.25324 7.7552 6.25324 7.94761V9.22418C6.25324 9.41659 6.41242 9.57255 6.60872 9.57255Z" fill="white"/>
<path d="M15.7883 7.71516V6.46788C15.7883 6.29927 15.6488 6.1626 15.4768 6.1626H14.4055C14.2335 6.1626 14.094 6.29927 14.094 6.46788V7.71516H12.8213C12.6492 7.71516 12.5098 7.85183 12.5098 8.02045V9.07025C12.5098 9.23886 12.6492 9.37553 12.8213 9.37553H14.094V10.6228C14.094 10.7914 14.2335 10.9281 14.4055 10.9281H15.4768C15.6488 10.9281 15.7883 10.7914 15.7883 10.6228V9.37553H17.061C17.2331 9.37553 17.3725 9.23886 17.3725 9.07025V8.02045C17.3725 7.85183 17.2331 7.71516 17.061 7.71516H15.7883Z" fill="white"/>
</g>
<defs>
<clipPath id="clip0">
<rect width="16.5816" height="16.25" fill="white" transform="translate(0.791016 0.375)"/>
</clipPath>
</defs>
</svg>
