<svg width="14" height="13" viewBox="0 0 14 13" fill="none" xmlns="http://www.w3.org/2000/svg">
<g clip-path="url(#clip0)">
<path d="M3.2298 4.15625H0.377441V12.75H3.2298V4.15625Z" fill="white"/>
<path d="M10.9991 4.25703C10.9688 4.24766 10.9401 4.2375 10.9082 4.22891C10.87 4.22031 10.8317 4.21328 10.7926 4.20703C10.6412 4.17734 10.4754 4.15625 10.2809 4.15625C8.6179 4.15625 7.56322 5.34141 7.21564 5.79922V4.15625H4.36328V12.75H7.21564V8.0625C7.21564 8.0625 9.37125 5.12031 10.2809 7.28125C10.2809 9.21016 10.2809 12.75 10.2809 12.75H13.1324V6.95078C13.1324 5.65234 12.2244 4.57031 10.9991 4.25703Z" fill="white"/>
<path d="M1.77253 2.98438C2.54302 2.98438 3.16762 2.37226 3.16762 1.61719C3.16762 0.862111 2.54302 0.25 1.77253 0.25C1.00204 0.25 0.377441 0.862111 0.377441 1.61719C0.377441 2.37226 1.00204 2.98438 1.77253 2.98438Z" fill="white"/>
</g>
<defs>
<clipPath id="clip0">
<rect width="12.7551" height="12.5" fill="white" transform="translate(0.377441 0.25)"/>
</clipPath>
</defs>
</svg>
