<svg width="36" height="50" viewBox="0 0 36 50" fill="none" xmlns="http://www.w3.org/2000/svg">
<path d="M35.2174 40.512C34.7854 40.512 34.4351 40.8399 34.4351 41.2444V48.1306C34.4351 48.3535 34.2412 48.535 34.0031 48.535H29.7974V34.1114C29.7974 33.7069 29.4471 33.379 29.0151 33.379C28.583 33.379 28.2327 33.7069 28.2327 34.1114V48.5351H19.7639L22.2198 46.0058C22.4881 45.7294 22.6146 45.3357 22.5582 44.9523C22.5572 44.9449 22.5559 44.9375 22.5545 44.9301L20.2155 31.9938L20.8457 31.1058C21.1941 31.3374 21.4625 31.5604 21.9658 31.5604C22.4778 31.5604 22.9565 31.2922 23.192 30.8506V30.8505L25.6591 26.2216L31.2791 28.2592C31.4824 28.3408 34.4349 29.5855 34.4349 32.8723V37.8264C34.4348 38.2308 34.785 38.5588 35.2172 38.5588C35.6493 38.5588 35.9996 38.2309 35.9996 37.8264V32.8723C35.9996 28.5418 32.0389 26.9677 31.8703 26.9027C31.8654 26.9008 31.8604 26.8989 31.8554 26.8972L22.5017 23.506V21.4522C23.9873 20.3706 25.0174 18.7672 25.276 16.9379C26.0168 16.8891 26.7041 16.6301 27.2654 16.1782C27.9984 15.5881 28.419 14.7292 28.419 13.8222C28.419 13.0694 28.1289 12.3507 27.6119 11.7906V9.07744C27.6118 4.07217 23.2621 0 17.9156 0C12.569 0 8.21928 4.07217 8.21928 9.07744V11.8617C7.69677 12.4161 7.41261 13.0985 7.41261 13.8221C7.41261 14.7294 7.833 15.5882 8.56623 16.1784C9.12713 16.6301 9.81405 16.8888 10.5546 16.9377C10.8153 18.8013 11.8754 20.4645 13.4876 21.5606V23.506L4.14401 26.8971C4.13911 26.8988 4.13421 26.9007 4.1293 26.9025C3.96063 26.9675 0 28.5416 0 32.8721V48.1304C0 49.1611 0.895752 49.9997 1.99679 49.9997H9.45082C9.8829 49.9997 10.2332 49.6718 10.2332 49.2673C10.2332 48.8628 9.8829 48.5349 9.45082 48.5349H7.76749V34.1114C7.76749 33.7069 7.4172 33.379 6.98513 33.379C6.55306 33.379 6.20277 33.7069 6.20277 34.1114V48.5351H1.9969C1.75875 48.5351 1.56493 48.3536 1.56493 48.1307V32.8722C1.56493 29.5744 4.53718 28.3325 4.71973 28.2595L10.3354 26.2214L12.8027 30.8505C13.0387 31.2932 13.5181 31.5604 14.029 31.5604C14.5298 31.5604 14.7956 31.3408 15.1491 31.1058L15.7793 31.9938L13.4404 44.9302C13.4391 44.9375 13.4379 44.9448 13.4368 44.9522C13.3803 45.3354 13.5068 45.7293 13.7752 46.0059L16.2311 48.5352H13.1022C12.6701 48.5352 12.3198 48.8631 12.3198 49.2676C12.3198 49.6721 12.6701 50 13.1022 50H34.0032C35.1042 50 36 49.1613 36 48.1307V41.2445C35.9998 40.8399 35.6495 40.512 35.2174 40.512ZM24.1935 25.6903L21.8935 30.0058C21.8363 29.9678 20.6174 29.157 19.1274 28.1665C19.7739 27.4193 19.0175 28.2934 21.9684 24.8836L24.1935 25.6903ZM19.5691 30.2571L18.9726 31.0977H17.0216L16.4251 30.2571L17.9971 29.2119L19.5691 30.2571ZM15.0522 23.7423V22.3716C16.0027 22.7303 17.0186 22.8966 18.0106 22.8966C19.0363 22.8966 20.0422 22.6919 20.9368 22.3257V23.7482L17.9971 27.1452L15.0522 23.7423ZM26.8542 13.8222C26.8541 14.302 26.6321 14.756 26.2451 15.0676C25.9892 15.2736 25.6801 15.4054 25.3416 15.4569V12.1877C26.2408 12.3244 26.8542 13.0227 26.8542 13.8222ZM10.4899 15.4569C9.58049 15.3188 8.97734 14.6148 8.97734 13.8221C8.97734 13.0391 9.67072 12.4018 10.4899 12.2245V15.4569ZM10.5319 10.732C10.2827 10.7588 9.99712 10.822 9.78421 10.8897V9.07744C9.78421 4.87988 13.4319 1.46494 17.9157 1.46494C22.3994 1.46494 26.0471 4.87988 26.0471 9.07744V10.8395C25.8197 10.7747 25.5838 10.7319 25.3417 10.7118C25.3417 10.0051 25.3483 10.1414 22.8786 7.65576C22.4245 7.19893 21.6732 7.10322 21.1014 7.45293C18.3757 9.11982 15.0507 9.95723 11.9828 9.75098C11.3098 9.70381 10.6969 10.1188 10.5319 10.732ZM12.0547 16.0336V11.4641V11.2233C15.4319 11.4085 18.9727 10.4692 21.8331 8.7543C22.9658 9.89277 23.5791 10.4899 23.7769 10.7171C23.7769 11.2917 23.7769 15.3758 23.7769 16.0335C23.7769 19.0068 21.1872 21.4315 18.0107 21.4315C14.4438 21.4316 12.0547 18.8412 12.0547 16.0336ZM14.1009 30.0058L11.8008 25.6903L14.022 24.885L16.8636 28.1687C15.4186 29.1293 14.232 29.9186 14.1009 30.0058ZM14.9985 45.0881L17.2631 32.5624H18.7309L20.9955 45.0881L17.997 48.1763L14.9985 45.0881Z" fill="#1E4150"/>
</svg>
