<svg width="15" height="15" viewBox="0 0 15 15" fill="none" xmlns="http://www.w3.org/2000/svg">
<path d="M14.6637 11.8814L12.3472 9.55934C11.8858 9.09875 11.1217 9.11274 10.6442 9.59148L9.47714 10.7609C9.40341 10.7202 9.32709 10.6777 9.24685 10.6325C8.50986 10.2232 7.50116 9.66227 6.43971 8.59764C5.37512 7.53076 4.8149 6.51822 4.40529 5.77908C4.36207 5.70078 4.32065 5.62528 4.27976 5.55358L5.06303 4.7697L5.44812 4.38326C5.92633 3.90383 5.93952 3.13822 5.47919 2.67629L3.16268 0.354002C2.70235 -0.107284 1.93791 -0.0932902 1.45969 0.386137L0.806819 1.04425L0.82466 1.062C0.605743 1.34197 0.422809 1.66487 0.286676 2.01308C0.161186 2.34453 0.083057 2.66082 0.0473321 2.97776C-0.258548 5.51933 0.900247 7.84213 4.04507 10.9941C8.39217 15.3508 11.8954 15.0217 12.0465 15.0056C12.3756 14.9662 12.6911 14.8873 13.0117 14.7626C13.3561 14.6277 13.678 14.4446 13.9572 14.2257L13.9714 14.2384L14.6329 13.5892C15.1101 13.1099 15.1238 12.344 14.6637 11.8814Z" fill="white"/>
</svg>
