<svg width="70" height="70" viewBox="0 0 70 70" fill="none" xmlns="http://www.w3.org/2000/svg">
<g clip-path="url(#clip0)">
<path d="M36.731 33.2706C36.1964 32.736 35.331 32.736 34.7964 33.2706C34.2632 33.8038 34.2632 34.6692 34.7964 35.2038C35.331 35.737 36.1964 35.737 36.731 35.2038C37.2642 34.6692 37.2642 33.8038 36.731 33.2706Z" fill="#1E4150"/>
<path d="M54.1315 15.8689C51.46 13.1976 47.1353 13.1974 44.4637 15.8689C41.7992 18.5334 41.7991 22.8701 44.4641 25.5368C47.1296 28.2006 51.4663 28.2017 54.1315 25.5366C56.8027 22.8653 56.8032 18.5405 54.1315 15.8689ZM52.198 23.6029C50.5994 25.2017 47.9971 25.2017 46.3976 23.6032C44.7987 22.0033 44.7985 19.401 46.3973 17.8024C48.0001 16.1996 50.595 16.1994 52.198 17.8024C53.8007 19.405 53.801 22.0001 52.198 23.6029Z" fill="#1E4150"/>
<path d="M69.5993 0.400462C69.3308 0.132083 68.9644 -0.013385 68.5835 0.000970428C68.2743 0.0120446 60.9141 0.307903 52.1648 3.40034C45.1539 5.87576 39.3101 9.41992 34.7958 13.9344C33.7842 14.9459 32.7999 16.0186 31.858 17.133C27.3944 14.5056 23.8176 15.3294 21.5564 16.5395C16.35 19.3259 13.1274 26.8913 13.1274 32.3026C13.1279 32.8555 13.461 33.3541 13.9718 33.5656C14.1409 33.6358 14.3187 33.6698 14.4948 33.6698C14.8506 33.6698 15.2002 33.5308 15.4618 33.2694C18.2075 30.5236 21.5941 30.6954 22.7005 30.8408L23.1793 31.3196C22.237 33.5618 21.4779 35.7914 20.9212 37.9599C20.7202 38.7447 20.7881 39.5751 21.0868 40.3347C19.7705 40.9413 18.5005 41.832 17.3947 42.9378C13.8754 46.4572 13.1608 55.0341 13.1321 55.3975C13.1006 55.7963 13.2453 56.189 13.5282 56.4719C13.7856 56.7292 14.1338 56.8723 14.4948 56.8723C14.5306 56.8723 14.5665 56.8709 14.6025 56.8681C14.9659 56.8395 23.5431 56.1249 27.0623 52.6056C28.1677 51.5002 29.0583 50.2304 29.6649 48.9143C30.4691 49.2306 31.2968 49.2695 32.0411 49.0788C34.2086 48.5222 36.4379 47.7634 38.6804 46.821L39.1592 47.2998C39.3045 48.4063 39.4762 51.7929 36.7307 54.5384C36.3398 54.9294 36.2227 55.5174 36.4344 56.0282C36.6459 56.5391 37.1444 56.8722 37.6974 56.8722C43.1087 56.8722 50.674 53.6496 53.4603 48.4432C54.6704 46.1823 55.4943 42.6055 52.8668 38.1417C53.9807 37.2003 55.0535 36.2159 56.0655 35.2039C60.58 30.6895 64.124 24.8457 66.5994 17.8354C69.692 9.08564 69.9877 1.72526 69.9988 1.41628C70.0124 1.03689 69.8677 0.668977 69.5993 0.400462ZM16.1842 29.3619C17.0335 25.2518 19.5003 20.7416 22.8472 18.9503C25.0837 17.7535 27.5284 17.8708 30.1277 19.2936C27.9133 22.206 25.9881 25.3437 24.3835 28.657C24.3631 28.6445 24.117 28.3351 23.6598 28.232C23.4718 28.1895 19.8544 27.4114 16.1842 29.3619ZM25.1289 50.672C23.249 52.5519 18.8391 53.5434 16.0518 53.9482C16.4568 51.1608 17.4484 46.751 19.3282 44.8713C20.3809 43.8186 21.6015 43.0204 22.8284 42.5709L27.4293 47.1717C26.9798 48.3986 26.1817 49.6193 25.1289 50.672ZM31.3619 46.43C30.9662 46.5313 30.5079 46.3826 30.1672 46.0424C28.3985 44.2737 27.7066 43.5818 27.4894 43.3648C27.0913 42.9667 26.115 41.9904 23.9586 39.8338C23.6176 39.4921 23.4688 39.034 23.5699 38.639C24.0078 36.9336 24.5805 35.1838 25.2769 33.4173L36.5829 44.7232C34.816 45.4198 33.0666 45.9924 31.3619 46.43ZM51.0499 47.153C49.2586 50.4997 44.7485 52.9667 40.6385 53.8158C41.9489 51.3498 42.2378 48.2106 41.759 46.3071C41.6479 45.865 41.3594 45.6427 41.3433 45.6166C44.6564 44.0119 47.7939 42.0868 50.7066 39.8723C52.1294 42.4719 52.2466 44.9168 51.0499 47.153ZM54.1323 33.2705C52.9003 34.5023 51.5738 35.6924 50.1894 36.8076C46.8614 39.4873 43.1984 41.7571 39.2904 43.564L26.4362 30.71C28.243 26.8018 30.5128 23.1388 33.1922 19.8112C34.3084 18.4258 35.4984 17.0991 36.7298 15.8678C40.7801 11.8174 46.0074 8.59387 52.2708 6.27348L63.7267 17.7294C61.4066 23.9926 58.183 29.2199 54.1323 33.2705ZM64.7104 14.8459L55.1543 5.28979C60.3607 3.67268 64.89 3.06716 67.1508 2.8495C66.933 5.11069 66.3273 9.64003 64.7104 14.8459Z" fill="#1E4150"/>
<path d="M32.8633 56.4714C32.3292 55.9376 31.4635 55.9378 30.9297 56.4717L27.0633 60.3395C26.5296 60.8735 26.5297 61.7392 27.0636 62.2729C27.5977 62.8067 28.4634 62.8067 28.9972 62.2727L32.8636 58.4049C33.3973 57.8709 33.3972 57.0052 32.8633 56.4714Z" fill="#1E4150"/>
<path d="M13.529 37.137C12.9953 36.603 12.1297 36.603 11.5955 37.1367L7.72777 41.0031C7.19375 41.5369 7.19361 42.4026 7.72736 42.9366C8.26097 43.4703 9.12654 43.4709 9.66083 42.9369L13.5286 39.0705C14.0626 38.5367 14.0628 37.671 13.529 37.137Z" fill="#1E4150"/>
<path d="M23.1959 58.4062C22.6623 57.8723 21.7965 57.8723 21.2624 58.406L12.0011 67.666C11.4671 68.1999 11.4671 69.0656 12.001 69.5994C12.5346 70.1333 13.4004 70.1336 13.9345 69.5996L23.1958 60.3396C23.7298 59.8058 23.7298 58.9401 23.1959 58.4062Z" fill="#1E4150"/>
<path d="M12.2584 58.4062C11.7247 57.8723 10.8588 57.8723 10.3249 58.406L1.06362 67.666C0.529597 68.1999 0.529597 69.0656 1.06348 69.5994C1.5971 70.1333 2.46293 70.1336 2.99696 69.5996L12.2583 60.3396C12.7923 59.8058 12.7923 58.9401 12.2584 58.4062Z" fill="#1E4150"/>
<path d="M11.5938 46.8039C11.0601 46.2702 10.1942 46.2702 9.66034 46.8041L0.400397 56.0654C-0.133488 56.5994 -0.133488 57.4649 0.400534 57.999C0.93442 58.5328 1.80012 58.5328 2.33401 57.9988L11.594 48.7375C12.1278 48.2035 12.1278 47.3379 11.5938 46.8039Z" fill="#1E4150"/>
<path d="M42.5309 27.4693C41.9969 26.9354 41.1314 26.9354 40.5973 27.4693L38.6641 29.4025C38.1302 29.9364 38.1302 30.8021 38.6641 31.3361C39.1981 31.87 40.0637 31.87 40.5977 31.3361L42.5309 29.4029C43.0648 28.869 43.0648 28.0033 42.5309 27.4693Z" fill="#1E4150"/>
</g>
<defs>
<clipPath id="clip0">
<rect width="70" height="70" fill="white"/>
</clipPath>
</defs>
</svg>
