<svg width="70" height="70" viewBox="0 0 70 70" fill="none" xmlns="http://www.w3.org/2000/svg">
<path d="M69.6646 62.2713C69.1691 61.7015 68.3056 61.6413 67.7357 62.1368C66.2779 63.4043 64.9288 64.7185 63.016 65.2471C60.8896 65.8348 58.8687 65.371 56.9443 64.4088L64.0644 40.4524C64.2416 39.8565 63.9942 39.2159 63.4625 38.8937L56.875 34.9022V23.2465C56.875 22.4916 56.2629 21.8794 55.5078 21.8794H52.7734V17.7778C52.7734 17.0228 52.1613 16.4106 51.4062 16.4106H47.0996V12.3091C47.0996 11.5541 46.4875 10.9419 45.7324 10.9419H39.1016V1.37158C39.1016 0.61662 38.4895 0.00439453 37.7344 0.00439453H32.2656C31.5105 0.00439453 30.8985 0.61662 30.8985 1.37158V10.9419H24.2676C23.5125 10.9419 22.9004 11.5541 22.9004 12.3091V16.4106H18.5938C17.8387 16.4106 17.2266 17.0228 17.2266 17.7778V21.8794H14.4922C13.7371 21.8794 13.125 22.4916 13.125 23.2465V34.9022L6.53768 38.8936C6.00584 39.2158 5.75852 39.8563 5.93571 40.4523C5.93571 40.4523 13.0384 64.3493 13.0414 64.3597C12.9201 63.9517 10.7323 63.6831 10.3456 63.633C6.36473 63.1179 3.33764 65.1121 0.47011 67.6054C-0.0997324 68.1009 -0.159888 68.9642 0.335443 69.5341C0.808352 70.078 1.68841 70.1693 2.26413 69.6688C5.21834 67.1006 8.54894 65.143 12.4577 67.0976C15.9938 68.8655 19.654 69.6236 23.3371 67.6855C26.3069 66.1223 29.1728 64.7725 32.4877 66.3507L35.8957 67.9736C38.8113 69.3621 42.1401 69.3301 45.0283 67.8858C46.8081 66.9959 48.617 65.8117 50.65 65.6719C52.6428 65.5351 54.5684 66.277 56.3193 67.1533C58.6325 68.3099 61.3405 68.541 63.8244 67.8329C66.1124 67.1806 67.7775 65.7235 69.5298 64.1999C70.0998 63.7046 70.1599 62.8412 69.6646 62.2713ZM54.1406 24.6137V33.2454L39.8948 24.6137H54.1406ZM33.6328 2.73876H36.3672V10.9419H33.6328V2.73876ZM25.6348 13.6762H44.3652V16.4106H25.6348V13.6762ZM15.8594 24.6137H30.1052L15.8594 33.2454V24.6137ZM33.6328 63.8677C33.6331 63.6247 31.6839 63.1765 31.4289 63.1213C29.0495 62.6063 26.495 62.9333 24.3379 64.0688C22.7727 64.8925 21.2627 65.8535 19.4726 66.084C19.4693 66.0844 19.4661 66.0848 19.4628 66.0852C18.4169 66.2124 17.3464 66.1354 16.3341 65.8402L8.85738 40.6853L33.6328 25.6736C33.6328 25.6736 33.6328 63.8662 33.6328 63.8677ZM19.961 21.8794V19.145H50.039V21.8794H19.961ZM54.417 63.3131C54.4322 62.8901 50.5836 62.8939 50.3257 62.9212C47.9526 63.1722 45.8996 64.3932 43.8054 65.4403C41.3313 66.6774 38.7856 66.3218 36.3672 65.1696V25.6736L61.1426 40.6853L54.417 63.3131Z" fill="#1E4150"/>
</svg>
