<svg width="16" height="15" viewBox="0 0 16 15" fill="none" xmlns="http://www.w3.org/2000/svg">
<path d="M15.9681 6.333C15.9126 6.21321 15.7941 6.13657 15.663 6.13657H14.6666C14.0331 2.65023 11.0143 0 7.39595 0C3.31807 0 0 3.36482 0 7.50017C0 11.6355 3.31773 15 7.39595 15C10.0277 15 12.4822 13.5636 13.8013 11.252C13.9871 10.9258 13.8775 10.5091 13.5555 10.3202C13.2341 10.1314 12.8229 10.2426 12.6374 10.5688C11.5576 12.4609 9.5491 13.6367 7.39595 13.6367C4.0595 13.6367 1.34466 10.884 1.34466 7.50086C1.34466 4.11705 4.0595 1.3643 7.39595 1.3643C10.2698 1.3643 12.6776 3.40832 13.291 6.13691H12.3024C12.1714 6.13691 12.0532 6.21355 11.9974 6.33334C11.9419 6.45313 11.96 6.59433 12.0437 6.69616L13.7247 8.74157C13.7887 8.81925 13.883 8.86412 13.9831 8.86412C14.0828 8.86412 14.1774 8.8189 14.2411 8.74157L15.9221 6.69616C16.0058 6.59398 16.0235 6.45279 15.9681 6.333Z" fill="white"/>
<path d="M7.40604 2C6.96218 2 6.60253 2.29292 6.60253 2.65443V6.62544C6.23922 6.83287 6 7.17483 6 7.56319C6 8.19476 6.63101 8.70869 7.40645 8.70869C7.61882 8.70869 7.81899 8.66727 7.99962 8.59802L10.7946 9.91186C10.9216 9.97183 11.0591 10 11.1958 10C11.4732 10 11.7434 9.8827 11.8923 9.67262C12.114 9.36015 11.9826 8.95953 11.5977 8.77894L8.79988 7.46312C8.76245 7.11718 8.54153 6.81498 8.21037 6.6261V2.65443C8.20955 2.29325 7.8495 2 7.40604 2ZM7.40604 8.0536C7.07365 8.0536 6.80351 7.83324 6.80351 7.56319C6.80351 7.2928 7.07406 7.07244 7.40604 7.07244C7.73802 7.07244 8.00857 7.2928 8.00857 7.56319C8.00857 7.83324 7.73802 8.0536 7.40604 8.0536Z" fill="white"/>
</svg>
