<svg width="70" height="68" viewBox="0 0 70 68" fill="none" xmlns="http://www.w3.org/2000/svg">
<path d="M45.9448 5.3125C45.1901 5.3125 44.5776 5.9075 44.5776 6.64062C44.5776 7.37375 45.1901 7.96875 45.9448 7.96875C46.6995 7.96875 47.312 7.37375 47.312 6.64062C47.312 5.9075 46.6995 5.3125 45.9448 5.3125Z" fill="#1E4150"/>
<path d="M24.0698 5.3125C23.3151 5.3125 22.7026 5.9075 22.7026 6.64062C22.7026 7.37375 23.3151 7.96875 24.0698 7.96875C24.8245 7.96875 25.437 7.37375 25.437 6.64062C25.437 5.9075 24.8245 5.3125 24.0698 5.3125Z" fill="#1E4150"/>
<path d="M63.4429 65.7535L54.3959 56.572C58.0508 56.4448 60.9843 53.5185 60.9843 49.9375V10.528C60.9843 8.38219 60.2122 6.28668 58.81 4.62745C57.4069 2.96862 55.4411 1.82551 53.2756 1.40941C48.4232 0.474141 43.4551 0 38.5092 0H31.2864C26.5823 0 21.6824 0.43775 16.7242 1.40038C12.2665 2.26671 9.03114 6.10114 9.03114 10.5174V49.9375C9.03114 53.5487 12.0143 56.4938 15.7122 56.5743L6.56309 65.7478C6.18096 66.1308 6.07186 66.6987 6.2861 67.1897C6.50007 67.6808 6.99594 68 7.54501 68H17.3204C17.7587 68 18.1704 67.7959 18.4275 67.4511L22.5748 61.8906H47.5623L51.7095 67.4512C51.9667 67.7959 52.3785 68 52.8167 68H62.4554C63.0029 68 63.4976 67.6826 63.7126 67.1936C63.9277 66.7043 63.8216 66.1378 63.4429 65.7535ZM11.7655 49.9375V10.5174C11.7655 7.36273 14.0765 4.62387 17.2602 4.00496C21.7232 3.13849 26.439 2.65625 31.2862 2.65625H38.5091C43.2769 2.65625 48.0658 3.11326 52.7439 4.01479C54.2908 4.31216 55.6949 5.12869 56.6968 6.31324C57.6982 7.49833 58.2497 8.99512 58.2497 10.5279V49.9375C58.2497 52.1345 56.4098 53.9219 54.1482 53.9219H15.8669C13.6055 53.9219 11.7655 52.1345 11.7655 49.9375ZM16.6227 65.3438H10.7732L19.5154 56.5781H23.1606L16.6227 65.3438ZM24.556 59.2344L26.5372 56.5781H43.6001L45.5811 59.2344H24.556ZM53.5144 65.3438L46.9767 56.5781H50.6169L59.2541 65.3438H53.5144Z" fill="#1E4150"/>
<path d="M54.1479 10.625H15.8667C15.1117 10.625 14.4995 11.2197 14.4995 11.9531V34C14.4995 34.7334 15.1117 35.3281 15.8667 35.3281H54.1479C54.9029 35.3281 55.5151 34.7334 55.5151 34V11.9531C55.5151 11.2197 54.9029 10.625 54.1479 10.625ZM33.6401 32.6719H17.2339V13.2812H33.6401V32.6719ZM52.7808 32.6719H36.3745V13.2812H52.7808V32.6719Z" fill="#1E4150"/>
<path d="M40.4761 5.3125H29.5386C28.7836 5.3125 28.1714 5.90723 28.1714 6.64062C28.1714 7.37402 28.7836 7.96875 29.5386 7.96875H40.4761C41.231 7.96875 41.8433 7.37402 41.8433 6.64062C41.8433 5.90723 41.231 5.3125 40.4761 5.3125Z" fill="#1E4150"/>
<path d="M50.0464 39.3125C47.0309 39.3125 44.5776 41.6957 44.5776 44.625C44.5776 47.5543 47.0309 49.9375 50.0464 49.9375C53.0618 49.9375 55.5151 47.5543 55.5151 44.625C55.5151 41.6957 53.0618 39.3125 50.0464 39.3125ZM50.0464 47.2812C48.5386 47.2812 47.312 46.0897 47.312 44.625C47.312 43.1603 48.5386 41.9688 50.0464 41.9688C51.5541 41.9688 52.7808 43.1603 52.7808 44.625C52.7808 46.0897 51.5541 47.2812 50.0464 47.2812Z" fill="#1E4150"/>
<path d="M19.9683 39.3125C16.9528 39.3125 14.4995 41.6957 14.4995 44.625C14.4995 47.5543 16.9529 49.9375 19.9683 49.9375C22.9837 49.9375 25.437 47.5543 25.437 44.625C25.437 41.6957 22.9837 39.3125 19.9683 39.3125ZM19.9683 47.2812C18.4605 47.2812 17.2339 46.0897 17.2339 44.625C17.2339 43.1603 18.4605 41.9688 19.9683 41.9688C21.476 41.9688 22.7026 43.1603 22.7026 44.625C22.7026 46.0897 21.476 47.2812 19.9683 47.2812Z" fill="#1E4150"/>
<path d="M40.4761 40.6406H29.5386C28.7836 40.6406 28.1714 41.2354 28.1714 41.9688C28.1714 42.7021 28.7836 43.2969 29.5386 43.2969H40.4761C41.231 43.2969 41.8433 42.7021 41.8433 41.9688C41.8433 41.2354 41.2312 40.6406 40.4761 40.6406Z" fill="#1E4150"/>
<path d="M40.4761 45.9531H29.5386C28.7836 45.9531 28.1714 46.5479 28.1714 47.2812C28.1714 48.0146 28.7836 48.6094 29.5386 48.6094H40.4761C41.231 48.6094 41.8433 48.0146 41.8433 47.2812C41.8433 46.5479 41.2312 45.9531 40.4761 45.9531Z" fill="#1E4150"/>
</svg>
