<svg width="14" height="13" viewBox="0 0 14 13" fill="none" xmlns="http://www.w3.org/2000/svg">
<g clip-path="url(#clip0)">
<path d="M13.6223 2.62422C13.148 2.82812 12.6425 2.96328 12.1156 3.02891C12.6577 2.71172 13.0714 2.21328 13.2659 1.6125C12.7605 1.90781 12.2025 2.11641 11.6078 2.23281C11.1279 1.73203 10.4439 1.42188 9.6977 1.42188C8.25 1.42188 7.0845 2.57344 7.0845 3.98516C7.0845 4.18828 7.10204 4.38359 7.14509 4.56953C4.97114 4.46562 3.04751 3.44453 1.75526 1.88906C1.52966 2.27266 1.39732 2.71172 1.39732 3.18438C1.39732 4.07188 1.86368 4.85859 2.55883 5.31406C2.13871 5.30625 1.72656 5.18672 1.37739 4.99844C1.37739 5.00625 1.37739 5.01641 1.37739 5.02656C1.37739 6.27187 2.2838 7.30625 3.47242 7.54453C3.25957 7.60156 3.02758 7.62891 2.78683 7.62891C2.61942 7.62891 2.45041 7.61953 2.29177 7.58516C2.63058 8.6 3.592 9.34609 4.73517 9.37031C3.8455 10.0523 2.71588 10.4633 1.49298 10.4633C1.27854 10.4633 1.07286 10.4539 0.867188 10.4281C2.02551 11.1602 3.39828 11.5781 4.87867 11.5781C9.69053 11.5781 12.3213 7.67188 12.3213 4.28594C12.3213 4.17266 12.3173 4.06328 12.3117 3.95469C12.8307 3.59375 13.2667 3.14297 13.6223 2.62422Z" fill="white"/>
</g>
<defs>
<clipPath id="clip0">
<rect width="12.7551" height="12.5" fill="white" transform="translate(0.867188 0.25)"/>
</clipPath>
</defs>
</svg>
