<svg width="70" height="70" viewBox="0 0 70 70" fill="none" xmlns="http://www.w3.org/2000/svg">
<path d="M65.0997 31.6317L63.287 24.3809C63.7826 24.2756 64.1544 23.8359 64.1544 23.3091V22.14C64.1544 19.6017 62.0893 17.5367 59.5511 17.5367H51.2944V15.1253C51.2944 13.8762 50.2783 12.8601 49.0293 12.8601H6.94148C5.69242 12.8601 4.67633 13.8762 4.67633 15.1253V35.0001C4.67633 35.6053 5.16701 36.0961 5.7724 36.0961C6.37766 36.0961 6.86848 35.6055 6.86848 35.0001V15.1253C6.86848 15.0849 6.90115 15.0523 6.94148 15.0523H49.0291C49.0695 15.0523 49.1021 15.0849 49.1021 15.1253V35.0003C49.1021 35.6056 49.5928 36.0964 50.1982 36.0964C50.8035 36.0964 51.2943 35.6057 51.2943 35.0003V33.7578H64.2236C64.2247 33.7578 64.2255 33.7581 64.2265 33.7581C64.2276 33.7581 64.2286 33.758 64.2295 33.758C65.8205 33.7591 67.1714 34.8033 67.6354 36.2423H64.2273C63.6221 36.2423 63.1313 36.733 63.1313 37.3384V39.6765C63.1313 41.5702 64.6718 43.1108 66.5655 43.1108H67.8077V47.9332H64.9418C64.0004 45.2149 61.4162 43.2568 58.3818 43.2568C55.3473 43.2568 52.763 45.2149 51.8217 47.9332H51.294V39.6764C51.294 39.0711 50.8033 38.5803 50.1979 38.5803C49.5927 38.5803 49.1019 39.071 49.1019 39.6764V47.933H26.3617C25.4203 45.2146 22.8361 43.2565 19.8017 43.2565C16.7672 43.2565 14.1829 45.2146 13.2416 47.933H6.94148C6.90115 47.933 6.86848 47.9003 6.86848 47.86V45.4487H11.6179C12.2232 45.4487 12.714 44.958 12.714 44.3526C12.714 43.7472 12.2233 43.2565 11.6179 43.2565H1.09607C0.49082 43.2565 0 43.7472 0 44.3526C0 44.958 0.490684 45.4487 1.09607 45.4487H4.67647V47.86C4.67647 49.109 5.69256 50.1251 6.94162 50.1251H12.8621C12.8618 50.1495 12.8602 50.1737 12.8602 50.1981C12.8602 54.0257 15.9742 57.1396 19.8017 57.1396C23.6291 57.1396 26.7431 54.0257 26.7431 50.1981C26.7431 50.1735 26.7415 50.1495 26.7412 50.1251H51.4422C51.4419 50.1495 51.4403 50.1737 51.4403 50.1981C51.4403 54.0257 54.5543 57.1396 58.3818 57.1396C62.2092 57.1396 65.3233 54.0257 65.3233 50.1981C65.3233 50.1735 65.3216 50.1495 65.3214 50.1251H68.9038C69.509 50.1251 69.9999 49.6344 69.9999 49.0291V37.3381C70 34.4517 67.8703 32.0535 65.0997 31.6317ZM51.2944 19.7287H59.5511C60.8807 19.7287 61.9624 20.8104 61.9624 22.14V22.213H51.2944V19.7287ZM51.2944 31.5658V24.4051H61.0336L62.8238 31.5658H51.2944ZM19.8017 54.9479C17.1828 54.9479 15.0522 52.8174 15.0522 50.1984C15.0522 47.5794 17.1828 45.4489 19.8017 45.4489C22.4205 45.4489 24.5511 47.5794 24.5511 50.1984C24.5511 52.8174 22.4205 54.9479 19.8017 54.9479ZM58.3821 54.9479C55.7632 54.9479 53.6326 52.8174 53.6326 50.1984C53.6326 47.5794 55.7632 45.4489 58.3821 45.4489C61.0009 45.4489 63.1315 47.5794 63.1315 50.1984C63.1315 52.8174 61.0009 54.9479 58.3821 54.9479ZM67.808 40.9186H66.5658C65.8808 40.9186 65.3235 40.3614 65.3235 39.6764V38.4342H67.8079V40.9186H67.808Z" fill="#1E4150"/>
<path d="M19.8018 47.9331C18.5527 47.9331 17.5366 48.9492 17.5366 50.1983C17.5366 51.4473 18.5527 52.4634 19.8018 52.4634C21.0508 52.4634 22.0669 51.4473 22.0669 50.1983C22.0669 48.9492 21.0508 47.9331 19.8018 47.9331Z" fill="#1E4150"/>
<path d="M58.3819 47.9331C57.1328 47.9331 56.1167 48.9492 56.1167 50.1983C56.1167 51.4473 57.1328 52.4634 58.3819 52.4634C59.6309 52.4634 60.647 51.4473 60.647 50.1983C60.647 48.9492 59.6309 47.9331 58.3819 47.9331Z" fill="#1E4150"/>
<path d="M45.5221 43.2568H29.1547C28.5494 43.2568 28.0586 43.7475 28.0586 44.3529C28.0586 44.9583 28.5493 45.449 29.1547 45.449H45.5221C46.1273 45.449 46.6182 44.9583 46.6182 44.3529C46.6182 43.7475 46.1275 43.2568 45.5221 43.2568Z" fill="#1E4150"/>
<path d="M17.4632 38.5803H3.43396C2.82871 38.5803 2.33789 39.071 2.33789 39.6764C2.33789 40.2818 2.82857 40.7725 3.43396 40.7725H17.4632C18.0685 40.7725 18.5593 40.2818 18.5593 39.6764C18.5593 39.071 18.0685 38.5803 17.4632 38.5803Z" fill="#1E4150"/>
<path d="M38.1135 23.703C37.6855 23.2751 36.9914 23.2751 36.5635 23.7031L26.8165 33.45L21.746 28.3795C21.318 27.9514 20.624 27.9514 20.196 28.3795C19.768 28.8075 19.768 29.5014 20.196 29.9295L26.0416 35.775C26.2556 35.9891 26.5361 36.096 26.8165 36.096C27.0969 36.096 27.3776 35.9891 27.5914 35.775L38.1133 25.2531C38.5414 24.8249 38.5414 24.1311 38.1135 23.703Z" fill="#1E4150"/>
</svg>
