<svg width="50" height="50" viewBox="0 0 50 50" fill="none" xmlns="http://www.w3.org/2000/svg">
<path d="M49.749 23.292H47.3501V12.2567C47.3501 9.61114 45.1978 7.45886 42.5522 7.45886H39.3031L35.9781 1.48069C35.4714 0.567074 34.507 0 33.4611 0C32.9736 0 32.49 0.125718 32.063 0.36267L19.3025 7.45871H5.04886C2.40326 7.45871 0.250977 9.61099 0.250977 12.2566V45.202C0.250977 47.8476 2.40326 49.9999 5.04886 49.9999H42.5522C45.1978 49.9999 47.3501 47.8476 47.3501 45.202V35.5265H49.749V23.292ZM42.5522 9.37792C44.0299 9.37792 45.237 10.5006 45.3992 11.9371H41.7931L40.3709 9.37792H42.5522ZM32.9966 2.04C33.4466 1.78767 34.0522 1.96415 34.3006 2.41238L39.5975 11.9362H15.1993L32.9966 2.04ZM45.4308 45.202C45.4308 46.7891 44.1392 48.0808 42.552 48.0808H5.04886C3.46171 48.0808 2.17004 46.7891 2.17004 45.202V12.2567C2.17004 10.6696 3.46171 9.37792 5.04886 9.37792H15.8518L11.2496 11.9372H5.64863C5.11799 11.9372 4.68902 12.3671 4.68902 12.8968C4.68902 13.4266 5.11799 13.8564 5.64863 13.8564H7.79808H42.8602H45.4308V23.2929H38.4135C35.1547 23.2929 32.5025 25.9452 32.5025 29.2039V29.6165C32.5025 32.8754 35.1548 35.5275 38.4135 35.5275H45.4308V45.202ZM47.8298 33.6074H47.3501H38.4135C36.2122 33.6074 34.4216 31.8169 34.4216 29.6155V29.2028C34.4216 27.0016 36.2121 25.2109 38.4135 25.2109H47.3501H47.8298V33.6074ZM41.3526 29.488C41.3526 30.6587 40.4045 31.6067 39.2339 31.6067C38.0632 31.6067 37.1153 30.6586 37.1153 29.488C37.1153 28.3174 38.0634 27.3693 39.2339 27.3693C40.4047 27.3692 41.3526 28.3182 41.3526 29.488Z" fill="#1E4150"/>
</svg>
